<svg width="18" height="18" viewBox="0 0 18 18" fill="none" xmlns="http://www.w3.org/2000/svg">
<path d="M10.7475 15.0002H10.59C10.2726 14.9687 9.97344 14.8368 9.73606 14.6237C9.49869 14.4106 9.33543 14.1274 9.27 13.8152L7.26 4.50017L5.19 9.30017C5.13145 9.43433 5.03492 9.54842 4.91231 9.62838C4.7897 9.70834 4.64638 9.75068 4.5 9.75017H2.25C2.05109 9.75017 1.86032 9.67115 1.71967 9.5305C1.57902 9.38985 1.5 9.19908 1.5 9.00017C1.5 8.80126 1.57902 8.61049 1.71967 8.46984C1.86032 8.32919 2.05109 8.25017 2.25 8.25017H4.005L5.8875 3.90767C6.01422 3.61627 6.23021 3.37263 6.50433 3.2119C6.77845 3.05117 7.09653 2.98164 7.41271 3.01334C7.72889 3.04505 8.02683 3.17634 8.26358 3.38829C8.50033 3.60025 8.66365 3.88191 8.73 4.19267L10.74 13.5002L12.81 8.71517C12.8663 8.57821 12.9618 8.46096 13.0846 8.37821C13.2074 8.29546 13.3519 8.25091 13.5 8.25017H15.75C15.9489 8.25017 16.1397 8.32919 16.2803 8.46984C16.421 8.61049 16.5 8.80126 16.5 9.00017C16.5 9.19908 16.421 9.38985 16.2803 9.5305C16.1397 9.67115 15.9489 9.75017 15.75 9.75017H13.995L12.1125 14.0927C11.9975 14.3601 11.8073 14.5882 11.5649 14.7494C11.3225 14.9105 11.0385 14.9976 10.7475 15.0002Z" fill="#fff"></path>
</svg>