<svg width="15" height="14" viewBox="0 0 15 14" fill="none" xmlns="http://www.w3.org/2000/svg">
<path fill-rule="evenodd" clip-rule="evenodd" d="M2.78584 0.0448285C2.09536 0.1964 1.46714 0.71104 1.1632 1.37411C0.946809 1.84613 0.949655 1.78737 0.961261 5.54923C0.972977 9.35855 0.95586 9.08329 1.21371 9.60461C1.4947 10.1726 2.06514 10.6366 2.70464 10.8171C2.9272 10.88 3.15618 10.8841 6.40906 10.8841H9.87625L10.15 10.799C10.5507 10.6744 10.8646 10.4857 11.1566 10.1937C11.4486 9.90162 11.6374 9.58775 11.762 9.18701L11.8471 8.91329V5.44609C11.8471 1.57214 11.8604 1.78529 11.5867 1.26324C11.289 0.695383 10.8057 0.296108 10.15 0.076179C9.96114 0.0128571 9.74399 0.00844101 6.48205 0.00168911C3.65202 -0.00411388 2.97278 0.00380617 2.78584 0.0448285ZM13.8318 2.42759C13.6896 2.50183 13.6066 2.578 13.5265 2.70756L13.4164 2.88555L13.3982 6.73884L13.3799 10.5921L13.2988 10.8294C13.0606 11.5257 12.4887 12.0976 11.7923 12.3358L11.5551 12.417L7.70469 12.4352L3.85429 12.4535L3.68191 12.5548C3.37775 12.7336 3.2299 13.1037 3.32359 13.4516C3.3807 13.6636 3.62118 13.903 3.83724 13.9628C3.96327 13.9978 4.86981 14.0055 7.83243 13.9967L11.6646 13.9853L12.0214 13.8873C13.4327 13.4998 14.4628 12.4702 14.8497 11.0606L14.9482 10.7016L14.9596 6.86947C14.9684 3.90684 14.9607 3.0003 14.9258 2.87428C14.8685 2.6676 14.638 2.43142 14.4341 2.37051C14.2027 2.30135 14.0447 2.31635 13.8318 2.42759ZM6.60172 3.13494C6.83556 3.19381 7.09199 3.45023 7.15085 3.68407C7.17443 3.77768 7.19374 4.03589 7.19374 4.25787V4.66141L7.65907 4.66222C8.19156 4.66313 8.33981 4.70802 8.53145 4.92627C8.86036 5.30087 8.76025 5.87624 8.32353 6.12128C8.17743 6.20325 8.11207 6.2138 7.68082 6.22515L7.20075 6.23778L7.18812 6.71786C7.17677 7.1491 7.16622 7.21447 7.08425 7.36057C6.94709 7.60502 6.73333 7.73871 6.45092 7.7567C6.19132 7.77324 6.00971 7.70349 5.83617 7.52064C5.66212 7.33725 5.62438 7.18889 5.62438 6.68815V6.23077H5.22083C4.67663 6.23077 4.51831 6.18661 4.30772 5.97599C3.92348 5.59175 4.01615 4.99711 4.49769 4.75714C4.67492 4.66882 4.72597 4.66141 5.15707 4.66141H5.62438V4.19411C5.62438 3.76301 5.63179 3.71195 5.72011 3.53472C5.82248 3.32928 6.00796 3.17735 6.21694 3.12778C6.38877 3.08702 6.41333 3.08749 6.60172 3.13494Z" fill="currentColor"></path>
</svg>