<svg width="20" height="14" viewBox="0 0 20 14" fill="none" xmlns="http://www.w3.org/2000/svg">
<path d="M2.38131 0.70537L2.38131 0.70537C2.04217 0.755423 1.70925 0.924566 1.46165 1.17434M2.38131 0.70537L3.00218 0.76427C3.80487 1.00589 4.29426 1.8583 4.0934 2.62948C3.94828 3.18661 3.54444 3.61082 3.01305 3.77244C2.90023 3.80675 2.74286 3.82714 2.57777 3.82849C2.41256 3.82984 2.25598 3.81199 2.14463 3.77971L2.14462 3.77971C1.33629 3.54545 0.840391 2.69029 1.04295 1.91219L1.04295 1.91218C1.12107 1.61203 1.24656 1.39132 1.46165 1.17434M2.38131 0.70537C2.436 0.697298 2.54785 0.697908 2.67873 0.709974M2.38131 0.70537L2.67873 0.709974M1.46165 1.17434L1.31962 1.03354L1.46165 1.17434ZM2.67873 0.709974C2.80741 0.721837 2.92959 0.742442 3.00214 0.76426L2.67873 0.709974ZM6.31849 3.1635L6.31848 3.16349C6.22718 3.12069 6.08772 3.02333 6.02209 2.9577C5.51737 2.45299 5.71788 1.57987 6.38776 1.34838C6.40599 1.34208 6.43869 1.33193 6.57421 1.32347C6.71028 1.31498 6.93533 1.30884 7.33101 1.30454C8.12067 1.29595 9.57331 1.29476 12.3134 1.29422C12.6721 1.29415 13.0094 1.29404 13.3266 1.29393C15.8468 1.2931 17.1011 1.29268 17.7552 1.3159C18.1288 1.32917 18.2835 1.34995 18.3621 1.37373C18.4054 1.38683 18.4141 1.39396 18.451 1.4242C18.4668 1.43712 18.4877 1.45426 18.5187 1.47789C18.6689 1.5925 18.7645 1.70482 18.8245 1.82764C18.8847 1.95079 18.9161 2.09856 18.9166 2.2944C18.9169 2.39632 18.9123 2.44941 18.9011 2.49661C18.8897 2.54459 18.8687 2.59735 18.8206 2.69504L18.8206 2.69505C18.7072 2.92558 18.5792 3.05086 18.3354 3.16519L18.1771 3.23944H12.3288H6.48048L6.31849 3.1635ZM5.7421 7.00616V7.00612C5.7434 6.55642 5.99594 6.21194 6.43987 6.06842C6.44463 6.06794 6.45131 6.06736 6.46023 6.0667C6.48515 6.06487 6.52098 6.06297 6.56804 6.06106C6.66177 6.05727 6.79407 6.05369 6.96023 6.05036C7.29222 6.0437 7.75523 6.03808 8.30619 6.03354C9.40788 6.02446 10.8588 6.01969 12.3112 6.01931C13.7636 6.01894 15.2169 6.02296 16.3235 6.03147C16.8768 6.03572 17.3429 6.04109 17.6785 6.04758C17.8465 6.05083 17.9808 6.05434 18.0767 6.05808C18.1249 6.05996 18.1619 6.06185 18.1882 6.0637C18.2042 6.06482 18.2125 6.06572 18.2155 6.06601C19.0424 6.29322 19.1907 7.41168 18.425 7.86083C18.3889 7.88196 18.3722 7.89171 18.3508 7.90052C18.3309 7.9087 18.3015 7.91812 18.2478 7.92724C18.1346 7.94647 17.9378 7.96077 17.5452 7.96985C16.7733 7.98768 15.2921 7.98487 12.3193 7.97922L12.2217 7.97903L6.48067 7.96815L6.32217 7.89382C6.32217 7.89382 6.32217 7.89382 6.32217 7.89382C6.07853 7.77954 5.95039 7.6541 5.83743 7.42462L5.83742 7.42459C5.78809 7.3244 5.76788 7.27349 5.75693 7.22552C5.74589 7.17719 5.74175 7.12097 5.7421 7.00616ZM6.43149 6.06944C6.4315 6.06943 6.43211 6.06933 6.43343 6.06915L6.43149 6.06944ZM1.0408 6.64919L0.873099 6.60551L1.0408 6.64919C1.21137 5.99432 1.72001 5.53902 2.37557 5.44796C2.843 5.38307 3.32012 5.54759 3.67243 5.90297C4.29248 6.52846 4.29248 7.47919 3.67243 8.10468C3.14034 8.64144 2.32654 8.72361 1.69849 8.30423C1.15475 7.94114 0.88475 7.24826 1.0408 6.64919ZM1.04295 12.0955L1.04295 12.0955C0.84375 11.3303 1.31278 10.4956 2.10922 10.2377C2.21774 10.2026 2.38073 10.1813 2.55598 10.1807C2.73083 10.1801 2.89766 10.2001 3.01305 10.2352C3.81186 10.4782 4.29166 11.318 4.09169 12.0961C4.01621 12.3898 3.88922 12.6154 3.67785 12.8315L3.67784 12.8315C3.37213 13.1442 3.0061 13.2986 2.56643 13.3C2.13978 13.3013 1.77351 13.1479 1.46165 12.8333C1.24656 12.6163 1.12107 12.3956 1.04295 12.0955ZM5.81755 12.1185L5.63603 12.2024L5.81755 12.1185C5.71064 11.8874 5.71069 11.5774 5.81799 11.3454C5.94647 11.0677 6.19981 10.8567 6.47919 10.7864C6.48339 10.7861 6.4891 10.7858 6.49653 10.7855C6.5182 10.7845 6.54961 10.7835 6.591 10.7824C6.67352 10.7804 6.79172 10.7785 6.94271 10.7767C7.24447 10.7731 7.67461 10.7701 8.20655 10.7677C9.2703 10.763 10.7397 10.761 12.4002 10.7626L18.177 10.7682L18.3354 10.8425C18.5792 10.9568 18.7072 11.0821 18.8206 11.3126L18.8206 11.3126C18.8687 11.4103 18.8897 11.4631 18.9011 11.511C18.9123 11.5582 18.9169 11.6113 18.9166 11.7132C18.9161 11.9093 18.8847 12.057 18.8245 12.1801C18.7644 12.3029 18.6687 12.4154 18.5179 12.5304C18.4869 12.554 18.466 12.5711 18.4502 12.5841C18.4132 12.6144 18.4044 12.6216 18.3608 12.6347C18.2814 12.6585 18.1251 12.6792 17.748 12.692C17.0877 12.7144 15.821 12.7122 13.2759 12.7078C12.9564 12.7072 12.6168 12.7067 12.2558 12.7061L6.44671 12.6968L6.28547 12.6176C6.08697 12.5201 5.92618 12.3533 5.81755 12.1185Z" fill="currentColor" stroke="currentColor" stroke-width="0.4"></path>
</svg>