<svg width="19" height="15" viewBox="0 0 19 15" fill="none" xmlns="http://www.w3.org/2000/svg">
<mask id="path-1-inside-1_1353_5399" fill="white">
<path d="M7.71094 7.5C8.60604 7.5 9.46449 7.14442 10.0974 6.51149C10.7304 5.87855 11.0859 5.02011 11.0859 4.125C11.0859 3.22989 10.7304 2.37145 10.0974 1.73851C9.46449 1.10558 8.60604 0.75 7.71094 0.75C6.81583 0.75 5.95739 1.10558 5.32445 1.73851C4.69152 2.37145 4.33594 3.22989 4.33594 4.125C4.33594 5.02011 4.69152 5.87855 5.32445 6.51149C5.95739 7.14442 6.81583 7.5 7.71094 7.5ZM2.08594 14.25C2.08594 14.25 0.960938 14.25 0.960938 13.125C0.960938 12 2.08594 8.625 7.71094 8.625C13.3359 8.625 14.4609 12 14.4609 13.125C14.4609 14.25 13.3359 14.25 13.3359 14.25H2.08594ZM13.3359 2.4375C13.3359 2.28832 13.3952 2.14524 13.5007 2.03975C13.6062 1.93426 13.7493 1.875 13.8984 1.875H18.3984C18.5476 1.875 18.6907 1.93426 18.7962 2.03975C18.9017 2.14524 18.9609 2.28832 18.9609 2.4375C18.9609 2.58668 18.9017 2.72976 18.7962 2.83525C18.6907 2.94074 18.5476 3 18.3984 3H13.8984C13.7493 3 13.6062 2.94074 13.5007 2.83525C13.3952 2.72976 13.3359 2.58668 13.3359 2.4375ZM13.8984 5.25C13.7493 5.25 13.6062 5.30926 13.5007 5.41475C13.3952 5.52024 13.3359 5.66332 13.3359 5.8125C13.3359 5.96168 13.3952 6.10476 13.5007 6.21025C13.6062 6.31574 13.7493 6.375 13.8984 6.375H18.3984C18.5476 6.375 18.6907 6.31574 18.7962 6.21025C18.9017 6.10476 18.9609 5.96168 18.9609 5.8125C18.9609 5.66332 18.9017 5.52024 18.7962 5.41475C18.6907 5.30926 18.5476 5.25 18.3984 5.25H13.8984ZM16.1484 8.625C15.9993 8.625 15.8562 8.68426 15.7507 8.78975C15.6452 8.89524 15.5859 9.03832 15.5859 9.1875C15.5859 9.33668 15.6452 9.47976 15.7507 9.58525C15.8562 9.69074 15.9993 9.75 16.1484 9.75H18.3984C18.5476 9.75 18.6907 9.69074 18.7962 9.58525C18.9017 9.47976 18.9609 9.33668 18.9609 9.1875C18.9609 9.03832 18.9017 8.89524 18.7962 8.78975C18.6907 8.68426 18.5476 8.625 18.3984 8.625H16.1484ZM16.1484 12C15.9993 12 15.8562 12.0593 15.7507 12.1648C15.6452 12.2702 15.5859 12.4133 15.5859 12.5625C15.5859 12.7117 15.6452 12.8548 15.7507 12.9602C15.8562 13.0657 15.9993 13.125 16.1484 13.125H18.3984C18.5476 13.125 18.6907 13.0657 18.7962 12.9602C18.9017 12.8548 18.9609 12.7117 18.9609 12.5625C18.9609 12.4133 18.9017 12.2702 18.7962 12.1648C18.6907 12.0593 18.5476 12 18.3984 12H16.1484Z"></path>
</mask>
<path d="M7.71094 7.5V8.5V7.5ZM7.71094 0.75L7.71094 -0.25L7.71094 0.75ZM4.33594 4.125H3.33594H4.33594ZM13.8984 1.875V2.875V1.875ZM7.71094 8.5C8.87126 8.5 9.98406 8.03906 10.8045 7.21859L9.39032 5.80438C8.94492 6.24978 8.34083 6.5 7.71094 6.5V8.5ZM10.8045 7.21859C11.625 6.39812 12.0859 5.28532 12.0859 4.125H10.0859C10.0859 4.75489 9.83571 5.35898 9.39032 5.80438L10.8045 7.21859ZM12.0859 4.125C12.0859 2.96468 11.625 1.85188 10.8045 1.03141L9.39032 2.44562C9.83571 2.89102 10.0859 3.49511 10.0859 4.125H12.0859ZM10.8045 1.03141C9.98406 0.210936 8.87126 -0.25 7.71094 -0.25L7.71094 1.75C8.34083 1.75 8.94492 2.00022 9.39032 2.44562L10.8045 1.03141ZM7.71094 -0.25C6.55062 -0.25 5.43782 0.210936 4.61735 1.03141L6.03156 2.44562C6.47696 2.00022 7.08105 1.75 7.71094 1.75L7.71094 -0.25ZM4.61735 1.03141C3.79687 1.85188 3.33594 2.96468 3.33594 4.125L5.33594 4.125C5.33594 3.49511 5.58616 2.89102 6.03156 2.44562L4.61735 1.03141ZM3.33594 4.125C3.33594 5.28532 3.79687 6.39812 4.61735 7.21859L6.03156 5.80438C5.58616 5.35898 5.33594 4.75489 5.33594 4.125H3.33594ZM4.61735 7.21859C5.43782 8.03906 6.55062 8.5 7.71094 8.5L7.71094 6.5C7.08105 6.5 6.47696 6.24978 6.03156 5.80438L4.61735 7.21859ZM2.08594 14.25C2.08594 13.25 2.08642 13.25 2.0869 13.25C2.08706 13.25 2.08754 13.25 2.08785 13.25C2.08847 13.25 2.08908 13.25 2.08967 13.25C2.09086 13.25 2.09199 13.25 2.09306 13.25C2.0952 13.25 2.09713 13.2501 2.09884 13.2501C2.10225 13.2502 2.10483 13.2502 2.10662 13.2503C2.11017 13.2504 2.11076 13.2505 2.10884 13.2503C2.10467 13.25 2.09217 13.249 2.07456 13.246C2.03458 13.2394 1.99656 13.2279 1.97065 13.2149C1.94866 13.204 1.95708 13.2032 1.96877 13.2207C1.98463 13.2445 1.96094 13.2313 1.96094 13.125H-0.0390625C-0.0390625 13.5812 0.0778696 13.9899 0.304668 14.3301C0.527294 14.664 0.816969 14.8742 1.07622 15.0038C1.33156 15.1315 1.5748 15.1903 1.74576 15.2188C1.83361 15.2335 1.909 15.2412 1.96635 15.2453C1.99519 15.2473 2.01996 15.2485 2.03999 15.2492C2.05002 15.2495 2.05891 15.2497 2.06658 15.2498C2.07042 15.2499 2.07396 15.2499 2.07719 15.25C2.0788 15.25 2.08034 15.25 2.0818 15.25C2.08253 15.25 2.08323 15.25 2.08393 15.25C2.08427 15.25 2.08477 15.25 2.08495 15.25C2.08544 15.25 2.08594 15.25 2.08594 14.25ZM1.96094 13.125C1.96094 12.8193 2.14273 11.9512 2.93367 11.1602C3.6953 10.3986 5.10933 9.625 7.71094 9.625V7.625C4.68755 7.625 2.72657 8.5389 1.51946 9.74602C0.341643 10.9238 -0.0390625 12.3057 -0.0390625 13.125H1.96094ZM7.71094 9.625C10.3125 9.625 11.7266 10.3986 12.4882 11.1602C13.2791 11.9512 13.4609 12.8193 13.4609 13.125H15.4609C15.4609 12.3057 15.0802 10.9238 13.9024 9.74602C12.6953 8.5389 10.7343 7.625 7.71094 7.625V9.625ZM13.4609 13.125C13.4609 13.2313 13.4372 13.2445 13.4531 13.2207C13.4648 13.2032 13.4732 13.204 13.4512 13.2149C13.4253 13.2279 13.3873 13.2394 13.3473 13.246C13.3297 13.249 13.3172 13.25 13.313 13.2503C13.3111 13.2505 13.3117 13.2504 13.3153 13.2503C13.317 13.2502 13.3196 13.2502 13.323 13.2501C13.3247 13.2501 13.3267 13.25 13.3288 13.25C13.3299 13.25 13.331 13.25 13.3322 13.25C13.3328 13.25 13.3334 13.25 13.334 13.25C13.3343 13.25 13.3348 13.25 13.335 13.25C13.3355 13.25 13.3359 13.25 13.3359 14.25C13.3359 15.25 13.3364 15.25 13.3369 15.25C13.3371 15.25 13.3376 15.25 13.3379 15.25C13.3386 15.25 13.3393 15.25 13.3401 15.25C13.3415 15.25 13.3431 15.25 13.3447 15.25C13.3479 15.2499 13.3515 15.2499 13.3553 15.2498C13.363 15.2497 13.3719 15.2495 13.3819 15.2492C13.4019 15.2485 13.4267 15.2473 13.4555 15.2453C13.5129 15.2412 13.5883 15.2335 13.6761 15.2188C13.8471 15.1903 14.0903 15.1315 14.3457 15.0038C14.6049 14.8742 14.8946 14.664 15.1172 14.3301C15.344 13.9899 15.4609 13.5812 15.4609 13.125H13.4609ZM13.3359 13.25H2.08594V15.25H13.3359V13.25ZM14.3359 2.4375C14.3359 2.55353 14.2898 2.66481 14.2078 2.74686L12.7936 1.33265C12.5006 1.62567 12.3359 2.0231 12.3359 2.4375H14.3359ZM14.2078 2.74686C14.1257 2.82891 14.0145 2.875 13.8984 2.875L13.8984 0.875C13.484 0.875 13.0866 1.03962 12.7936 1.33265L14.2078 2.74686ZM13.8984 2.875H18.3984V0.875H13.8984V2.875ZM18.3984 2.875C18.2824 2.875 18.1711 2.82891 18.0891 2.74686L19.5033 1.33265C19.2103 1.03962 18.8128 0.875 18.3984 0.875V2.875ZM18.0891 2.74686C18.007 2.66481 17.9609 2.55353 17.9609 2.4375H19.9609C19.9609 2.0231 19.7963 1.62567 19.5033 1.33265L18.0891 2.74686ZM17.9609 2.4375C17.9609 2.32147 18.007 2.21019 18.0891 2.12814L19.5033 3.54235C19.7963 3.24933 19.9609 2.8519 19.9609 2.4375H17.9609ZM18.0891 2.12814C18.1711 2.04609 18.2824 2 18.3984 2V4C18.8128 4 19.2103 3.83538 19.5033 3.54235L18.0891 2.12814ZM18.3984 2H13.8984V4H18.3984V2ZM13.8984 2C14.0145 2 14.1257 2.04609 14.2078 2.12814L12.7936 3.54235C13.0866 3.83538 13.484 4 13.8984 4V2ZM14.2078 2.12814C14.2898 2.21019 14.3359 2.32147 14.3359 2.4375H12.3359C12.3359 2.8519 12.5006 3.24933 12.7936 3.54235L14.2078 2.12814ZM13.8984 4.25C13.484 4.25 13.0866 4.41462 12.7936 4.70765L14.2078 6.12186C14.1257 6.20391 14.0145 6.25 13.8984 6.25V4.25ZM12.7936 4.70765C12.5006 5.00067 12.3359 5.3981 12.3359 5.8125H14.3359C14.3359 5.92853 14.2898 6.03981 14.2078 6.12186L12.7936 4.70765ZM12.3359 5.8125C12.3359 6.2269 12.5006 6.62433 12.7936 6.91735L14.2078 5.50314C14.2898 5.58519 14.3359 5.69647 14.3359 5.8125H12.3359ZM12.7936 6.91735C13.0866 7.21038 13.484 7.375 13.8984 7.375V5.375C14.0145 5.375 14.1257 5.42109 14.2078 5.50314L12.7936 6.91735ZM13.8984 7.375H18.3984V5.375H13.8984V7.375ZM18.3984 7.375C18.8128 7.375 19.2103 7.21038 19.5033 6.91735L18.0891 5.50314C18.1711 5.42109 18.2824 5.375 18.3984 5.375V7.375ZM19.5033 6.91735C19.7963 6.62433 19.9609 6.2269 19.9609 5.8125H17.9609C17.9609 5.69647 18.007 5.58519 18.0891 5.50314L19.5033 6.91735ZM19.9609 5.8125C19.9609 5.3981 19.7963 5.00067 19.5033 4.70765L18.0891 6.12186C18.007 6.03981 17.9609 5.92853 17.9609 5.8125H19.9609ZM19.5033 4.70765C19.2103 4.41462 18.8128 4.25 18.3984 4.25V6.25C18.2824 6.25 18.1711 6.20391 18.0891 6.12186L19.5033 4.70765ZM18.3984 4.25H13.8984V6.25H18.3984V4.25ZM16.1484 7.625C15.734 7.625 15.3366 7.78962 15.0436 8.08265L16.4578 9.49686C16.3757 9.57891 16.2645 9.625 16.1484 9.625V7.625ZM15.0436 8.08265C14.7506 8.37567 14.5859 8.7731 14.5859 9.1875H16.5859C16.5859 9.30353 16.5398 9.41481 16.4578 9.49686L15.0436 8.08265ZM14.5859 9.1875C14.5859 9.6019 14.7506 9.99933 15.0436 10.2924L16.4578 8.87814C16.5398 8.96019 16.5859 9.07147 16.5859 9.1875H14.5859ZM15.0436 10.2924C15.3366 10.5854 15.734 10.75 16.1484 10.75V8.75C16.2645 8.75 16.3757 8.79609 16.4578 8.87814L15.0436 10.2924ZM16.1484 10.75H18.3984V8.75H16.1484V10.75ZM18.3984 10.75C18.8128 10.75 19.2103 10.5854 19.5033 10.2924L18.0891 8.87814C18.1711 8.79609 18.2824 8.75 18.3984 8.75V10.75ZM19.5033 10.2924C19.7963 9.99933 19.9609 9.6019 19.9609 9.1875H17.9609C17.9609 9.07147 18.007 8.96019 18.0891 8.87814L19.5033 10.2924ZM19.9609 9.1875C19.9609 8.7731 19.7963 8.37567 19.5033 8.08265L18.0891 9.49686C18.007 9.41481 17.9609 9.30353 17.9609 9.1875H19.9609ZM19.5033 8.08265C19.2103 7.78962 18.8128 7.625 18.3984 7.625V9.625C18.2824 9.625 18.1711 9.57891 18.0891 9.49686L19.5033 8.08265ZM18.3984 7.625H16.1484V9.625H18.3984V7.625ZM16.1484 11C15.734 11 15.3366 11.1646 15.0436 11.4576L16.4578 12.8719C16.3757 12.9539 16.2645 13 16.1484 13V11ZM15.0436 11.4576C14.7506 11.7507 14.5859 12.1481 14.5859 12.5625H16.5859C16.5859 12.6785 16.5398 12.7898 16.4578 12.8719L15.0436 11.4576ZM14.5859 12.5625C14.5859 12.9769 14.7506 13.3743 15.0436 13.6674L16.4578 12.2531C16.5398 12.3352 16.5859 12.4465 16.5859 12.5625H14.5859ZM15.0436 13.6674C15.3366 13.9604 15.734 14.125 16.1484 14.125V12.125C16.2645 12.125 16.3757 12.1711 16.4578 12.2531L15.0436 13.6674ZM16.1484 14.125H18.3984V12.125H16.1484V14.125ZM18.3984 14.125C18.8128 14.125 19.2103 13.9604 19.5033 13.6674L18.0891 12.2531C18.1711 12.1711 18.2824 12.125 18.3984 12.125V14.125ZM19.5033 13.6674C19.7963 13.3743 19.9609 12.9769 19.9609 12.5625H17.9609C17.9609 12.4465 18.007 12.3352 18.0891 12.2531L19.5033 13.6674ZM19.9609 12.5625C19.9609 12.1481 19.7963 11.7507 19.5033 11.4576L18.0891 12.8719C18.007 12.7898 17.9609 12.6785 17.9609 12.5625H19.9609ZM19.5033 11.4576C19.2103 11.1646 18.8128 11 18.3984 11V13C18.2824 13 18.1711 12.9539 18.0891 12.8719L19.5033 11.4576ZM18.3984 11H16.1484V13H18.3984V11Z" fill="#fff" mask="url(#path-1-inside-1_1353_5399)"></path>
</svg>