<svg width="19" height="18" viewBox="0 0 19 18" fill="none" xmlns="http://www.w3.org/2000/svg">
<g clip-path="url(#clip0_1353_5407)">
<path d="M13.8984 14.625C14.5198 14.625 15.0234 14.1213 15.0234 13.5C15.0234 12.8787 14.5198 12.375 13.8984 12.375C13.2771 12.375 12.7734 12.8787 12.7734 13.5C12.7734 14.1213 13.2771 14.625 13.8984 14.625Z" fill="currentColor"></path>
<path d="M18.273 13.2064C17.9254 12.321 17.3256 11.5572 16.548 11.0094C15.7704 10.4617 14.8491 10.1542 13.8984 10.125C12.9477 10.1542 12.0265 10.4617 11.2489 11.0094C10.4713 11.5572 9.87152 12.321 9.52387 13.2064L9.39844 13.5L9.52387 13.7931C9.87143 14.6785 10.4712 15.4425 11.2488 15.9903C12.0264 16.5382 12.9477 16.8458 13.8984 16.875C14.8492 16.8458 15.7705 16.5382 16.5481 15.9903C17.3257 15.4425 17.9254 14.6785 18.273 13.7931L18.3984 13.5L18.273 13.2064ZM13.8984 15.75C13.4534 15.75 13.0184 15.618 12.6484 15.3708C12.2784 15.1236 11.99 14.7722 11.8197 14.361C11.6494 13.9499 11.6049 13.4975 11.6917 13.061C11.7785 12.6246 11.9928 12.2237 12.3074 11.909C12.6221 11.5943 13.023 11.38 13.4595 11.2932C13.8959 11.2064 14.3483 11.251 14.7595 11.4213C15.1706 11.5916 15.522 11.88 15.7692 12.25C16.0165 12.62 16.1484 13.055 16.1484 13.5C16.1477 14.0965 15.9104 14.6684 15.4886 15.0902C15.0668 15.512 14.4949 15.7493 13.8984 15.75V15.75Z" fill="currentColor"></path>
<path d="M7.93538 11.6996C7.47525 11.3543 7.11101 10.8972 6.87723 10.3716C6.64344 9.84603 6.54788 9.2694 6.59961 8.69649C6.65135 8.12357 6.84865 7.57339 7.17281 7.09817C7.49696 6.62296 7.93719 6.23848 8.45172 5.98125C8.96624 5.72401 9.53798 5.60256 10.1126 5.62841C10.6873 5.65427 11.2458 5.82658 11.7352 6.12898C12.2245 6.43138 12.6284 6.85384 12.9086 7.35625C13.1888 7.85866 13.3359 8.42433 13.3359 8.99958H12.2109C12.2109 8.61605 12.1129 8.23889 11.9261 7.90391C11.7394 7.56893 11.4701 7.28725 11.1438 7.08561C10.8176 6.88398 10.4452 6.76909 10.0621 6.75185C9.67893 6.73461 9.29774 6.8156 8.95471 6.98712C8.61167 7.15864 8.31817 7.41499 8.10208 7.73185C7.88598 8.0487 7.75447 8.41554 7.72003 8.79752C7.68559 9.17949 7.74936 9.56393 7.90528 9.91433C8.06121 10.2647 8.30412 10.5695 8.61094 10.7996L7.93538 11.6996Z" fill="currentColor"></path>
<path d="M17.4467 6.21225L16.1192 3.91275C15.9893 3.68719 15.7852 3.51369 15.5417 3.42188C15.2981 3.33006 15.0303 3.32562 14.7838 3.40931L13.4147 3.87281C13.1788 3.71376 12.9322 3.57112 12.6767 3.44587L12.3932 2.0295C12.3422 1.77447 12.2044 1.54498 12.0033 1.38007C11.8022 1.21516 11.5502 1.12503 11.2901 1.125H8.63512C8.37504 1.12503 8.12301 1.21516 7.9219 1.38007C7.72079 1.54498 7.58303 1.77447 7.53206 2.0295L7.24856 3.44587C6.9902 3.56974 6.74078 3.71146 6.50212 3.87L5.14087 3.40931C4.89456 3.32591 4.62696 3.33051 4.38367 3.42231C4.14037 3.51411 3.93644 3.68743 3.80662 3.91275L2.47912 6.21225C2.34907 6.43741 2.30104 6.70067 2.34319 6.95725C2.38534 7.21384 2.51506 7.44789 2.7103 7.61962L3.79649 8.57419C3.78693 8.71594 3.77512 8.85656 3.77512 9C3.77512 9.14512 3.78074 9.28856 3.79087 9.43088L2.71087 10.3804C2.51544 10.552 2.3855 10.7859 2.34315 11.0425C2.30079 11.2991 2.34864 11.5625 2.47855 11.7877L3.80605 14.0873C3.936 14.3127 4.14016 14.4861 4.3837 14.5778C4.62723 14.6695 4.89504 14.6739 5.14143 14.5901L6.51056 14.1272C6.74644 14.2861 6.99303 14.4286 7.24856 14.5536L7.53149 15.9705C7.58249 16.2256 7.72033 16.4552 7.92156 16.6201C8.12278 16.785 8.37495 16.8751 8.63512 16.875H9.40012V15.75H8.63512L8.23574 13.7531C7.68327 13.5479 7.17041 13.2487 6.71981 12.8689L4.78087 13.5248L3.45337 11.2252L4.98618 9.87806C4.88131 9.29637 4.87998 8.70072 4.98224 8.11856L3.45337 6.77419L4.78087 4.47525L6.70856 5.12775C7.16238 4.74735 7.67923 4.44923 8.23574 4.24688L8.63512 2.25H11.2901L11.6895 4.24688C12.242 4.45214 12.7548 4.75128 13.2054 5.13112L15.1444 4.47525L16.4719 6.77475L14.898 8.154L15.6394 9L17.2144 7.61962C17.4098 7.44804 17.5397 7.21405 17.5821 6.95746C17.6244 6.70087 17.5766 6.43754 17.4467 6.21225V6.21225Z" fill="#fff"></path>
</g>
<defs>
<clipPath id="clip0_1353_5407">
<rect width="18" height="18" fill="white" transform="translate(0.960938)"></rect>
</clipPath>
</defs>
</svg>