<svg width="19" height="18" viewBox="0 0 19 18" fill="none" xmlns="http://www.w3.org/2000/svg">
<path d="M13.3359 9.5625H14.4609V10.6875H13.3359V9.5625Z" fill="#fff"></path>
<path d="M16.7109 4.5H3.21094V2.8125H15.5859V1.6875H3.21094C2.91257 1.6875 2.62642 1.80603 2.41544 2.017C2.20446 2.22798 2.08594 2.51413 2.08594 2.8125V14.625C2.08594 14.9234 2.20446 15.2095 2.41544 15.4205C2.62642 15.6315 2.91257 15.75 3.21094 15.75H16.7109C17.0093 15.75 17.2955 15.6315 17.5064 15.4205C17.7174 15.2095 17.8359 14.9234 17.8359 14.625V5.625C17.8359 5.32663 17.7174 5.04048 17.5064 4.8295C17.2955 4.61853 17.0093 4.5 16.7109 4.5ZM3.21094 14.625V5.625H16.7109V7.3125H12.2109C11.9126 7.3125 11.6264 7.43103 11.4154 7.642C11.2045 7.85298 11.0859 8.13913 11.0859 8.4375V11.8125C11.0859 12.1109 11.2045 12.397 11.4154 12.608C11.6264 12.819 11.9126 12.9375 12.2109 12.9375H16.7109V14.625H3.21094ZM16.7109 8.4375V11.8125H12.2109V8.4375H16.7109Z" fill="#fff"></path>
</svg>