<svg width="40" height="39" viewBox="0 0 40 39" fill="none" xmlns="http://www.w3.org/2000/svg">
<path d="M35.8288 14.9442V29.2259C35.8288 30.9676 34.4038 32.3926 32.6621 32.3926H7.32878C5.58711 32.3926 4.16211 30.9676 4.16211 29.2259V10.2259C4.16211 8.48424 5.58711 7.05924 7.32878 7.05924H23.3204C23.2254 7.56591 23.1621 8.10424 23.1621 8.64258C23.1621 10.9859 24.1913 13.0601 25.8063 14.5167L19.9954 18.1426L7.32878 10.2259V13.3926L19.9954 21.3092L28.3871 16.0526C29.2421 16.3692 30.1288 16.5592 31.0788 16.5592C32.8679 16.5592 34.4988 15.9417 35.8288 14.9442ZM26.3288 8.64258C26.3288 11.2709 28.4504 13.3926 31.0788 13.3926C33.7071 13.3926 35.8288 11.2709 35.8288 8.64258C35.8288 6.01424 33.7071 3.89258 31.0788 3.89258C28.4504 3.89258 26.3288 6.01424 26.3288 8.64258Z" fill="url(#paint0_linear_1448_14689)"></path>
<defs>
<linearGradient id="paint0_linear_1448_14689" x1="4.16211" y1="3.89258" x2="40.3952" y2="24.2752" gradientUnits="userSpaceOnUse">
<stop offset="0" stop-color="#FC466B"></stop>
<stop offset="1" stop-color="#3F5EFB"></stop>
</linearGradient>
</defs>
</svg>