<svg width="41" height="39" viewBox="0 0 41 39" fill="none" xmlns="http://www.w3.org/2000/svg">
<path d="M20.5552 0.543945C29.1928 0.543945 36.1943 7.54547 36.1943 16.1831C36.1943 22.7916 31.5507 29.9937 22.3837 37.8662C21.874 38.304 21.2241 38.5445 20.5522 38.5439C19.8802 38.5434 19.2307 38.3017 18.7218 37.863L18.1155 37.3368C9.35433 29.6697 4.91602 22.6441 4.91602 16.1831C4.91602 7.54547 11.9175 0.543945 20.5552 0.543945ZM20.5552 10.168C18.9599 10.168 17.4299 10.8018 16.3019 11.9298C15.1738 13.0578 14.5401 14.5878 14.5401 16.1831C14.5401 17.7784 15.1738 19.3083 16.3019 20.4364C17.4299 21.5644 18.9599 22.1982 20.5552 22.1982C22.1505 22.1982 23.6804 21.5644 24.8085 20.4364C25.9365 19.3083 26.5702 17.7784 26.5702 16.1831C26.5702 14.5878 25.9365 13.0578 24.8085 11.9298C23.6804 10.8018 22.1505 10.168 20.5552 10.168Z" fill="url(#paint0_linear_1448_14701)"></path>
<defs>
<linearGradient id="paint0_linear_1448_14701" x1="4.91602" y1="0.543945" x2="45.0587" y2="17.2727" gradientUnits="userSpaceOnUse">
<stop offset="0" stop-color="#FC466B"></stop>
<stop offset="1" stop-color="#3F5EFB"></stop>
</linearGradient>
</defs>
</svg>