<svg width="63" height="53" viewBox="0 0 63 53" fill="none" xmlns="http://www.w3.org/2000/svg">
<path fill-rule="evenodd" clip-rule="evenodd" d="M17.0213 0.393447C15.2469 0.747141 13.6542 1.96206 12.8781 3.55374C12.2223 4.89853 12.2522 4.15165 12.2522 19.2464V33.1657L12.4978 33.9467C13.123 35.9338 14.9116 37.5764 16.8971 37.9871C17.2871 38.0677 23.3377 38.0953 36.2089 38.0751L54.9528 38.0457L55.6139 37.7964C56.9935 37.2759 58.1673 36.2511 58.8318 34.9866C59.5856 33.552 59.5521 34.283 59.5539 19.2241C59.555 9.77461 59.5184 5.43567 59.4339 5.02752C59.0972 3.40101 57.8034 1.68522 56.3667 0.959979C54.9504 0.245048 56.1138 0.282869 35.8761 0.294404C25.75 0.300171 17.2653 0.344757 17.0213 0.393447ZM54.4622 5.374L54.7864 5.69819V14.3245C54.7864 19.0785 54.744 22.9035 54.692 22.8454C54.6401 22.7874 52.9523 20.8185 50.9412 18.47C48.9303 16.1215 47.0997 14.038 46.8735 13.8401C45.3549 12.5125 43.0422 12.5051 41.5349 13.823C41.2978 14.0304 39.1116 16.5882 36.6768 19.5071L32.2498 24.8143L31.8448 24.445C31.6219 24.2418 30.8408 23.4902 30.1088 22.7748C28.3953 21.1001 27.9159 20.8528 26.3933 20.8586C24.651 20.8651 24.6256 20.8829 20.4873 24.998L16.9659 28.4997V17.2077C16.9659 6.85821 16.9813 5.88974 17.1511 5.60226C17.253 5.42979 17.4401 5.23836 17.567 5.1768C17.7192 5.10294 23.9858 5.06223 35.9679 5.05735L54.138 5.04981L54.4622 5.374ZM22.872 7.55029C21.9836 7.78953 21.4173 8.12248 20.7344 8.80691C18.9201 10.6253 18.8764 13.4487 20.6337 15.3068C21.6034 16.3322 22.6882 16.8063 24.0641 16.8063C25.431 16.8063 26.5256 16.3315 27.4764 15.3261C28.1674 14.5956 28.4712 14.0097 28.681 13.0037C29.3798 9.65216 26.1893 6.65702 22.872 7.55029ZM5.71963 26.5672C3.65669 33.4508 2.83251 36.3569 2.79514 36.8795C2.64885 38.9237 3.86099 41.0341 5.69235 41.9238C6.29759 42.2179 10.7565 43.4516 24.5632 47.1453C34.5064 49.8053 42.9142 52.0528 43.2473 52.1397C43.9533 52.3239 45.2006 52.3416 45.9136 52.1774C47.2207 51.8763 48.6491 50.8055 49.2733 49.6585C49.4365 49.3585 50.0708 47.5214 50.6826 45.5758C51.2945 43.6303 51.8227 41.9511 51.8564 41.8444C51.9146 41.6601 51.0228 41.6503 34.1922 41.6496C16.9341 41.6488 16.4427 41.643 15.5544 41.4301C12.3025 40.6505 9.89675 38.271 8.94724 34.8951C8.71732 34.0777 8.70867 33.8022 8.65122 25.5177L8.59211 16.9824L5.71963 26.5672Z" fill="url(#paint0_linear_1360_6757)"></path>
<defs>
<linearGradient id="paint0_linear_1360_6757" x1="2.7832" y1="0.290039" x2="68.2844" y2="36.4949" gradientUnits="userSpaceOnUse">
<stop offset="0" stop-color="#FC466B"></stop>
<stop offset="1" stop-color="#3F5EFB"></stop>
</linearGradient>
</defs>
</svg>