<svg width="53" height="53" viewBox="0 0 53 53" fill="none" xmlns="http://www.w3.org/2000/svg">
<path fill-rule="evenodd" clip-rule="evenodd" d="M4.99303 0.487964C3.02942 1.01595 1.48925 2.57808 0.971252 4.5669C0.710104 5.56955 0.710104 39.648 0.971252 40.6507C1.50888 42.7149 3.21704 44.3715 5.23989 44.7905C5.66368 44.8783 9.45858 44.9076 17.6049 44.8862C29.2707 44.8554 29.361 44.8535 29.6793 44.6157C30.289 44.1605 30.4792 43.7892 30.4792 43.0546C30.4792 42.3199 30.289 41.9487 29.6793 41.4935C29.3616 41.2562 29.2502 41.2534 17.5263 41.1959C5.80238 41.1384 5.69098 41.1356 5.37325 40.8982C5.19679 40.7665 4.9447 40.5144 4.81297 40.338C4.57354 40.0172 4.57343 40.0099 4.57343 22.6088C4.57343 5.20769 4.57354 5.20037 4.81297 4.87963C4.9447 4.70316 5.19679 4.45108 5.37325 4.31934C5.694 4.07992 5.70131 4.0798 23.1024 4.0798C40.5035 4.0798 40.5108 4.07992 40.8316 4.31934C41.008 4.45108 41.2601 4.70316 41.3919 4.87963C41.6292 5.19735 41.632 5.30875 41.6895 17.0327C41.747 28.7566 41.7498 28.868 41.9871 29.1857C42.4423 29.7954 42.8136 29.9855 43.5482 29.9855C44.2829 29.9855 44.6541 29.7954 45.1093 29.1857C45.3471 28.8674 45.3491 28.777 45.3798 17.1113C45.4012 8.96495 45.372 5.17005 45.2841 4.74626C44.8651 2.72341 43.2085 1.01526 41.1443 0.477624C40.1592 0.221007 5.94922 0.230765 4.99303 0.487964ZM16.4364 7.86088C15.7013 8.04559 14.6551 8.66477 14.1472 9.21576C13.8864 9.49875 13.5074 10.0796 13.3053 10.5063C12.9723 11.209 12.9376 11.3871 12.9376 12.3919C12.9376 13.4392 12.962 13.5508 13.3715 14.3794C13.894 15.4367 14.5667 16.0953 15.6467 16.6069C16.3485 16.9394 16.5283 16.9746 17.5263 16.9746C18.5243 16.9746 18.7041 16.9394 19.4059 16.6069C20.4859 16.0953 21.1586 15.4367 21.6811 14.3794C22.0911 13.5499 22.115 13.4401 22.115 12.3859C22.115 11.3317 22.0911 11.2219 21.6811 10.3924C20.8961 8.80405 19.5015 7.87203 17.7876 7.79048C17.2924 7.7669 16.6844 7.79861 16.4364 7.86088ZM27.9815 17.1608C27.8218 17.2232 25.4048 19.5583 22.6103 22.35L17.5296 27.4256L15.1755 25.0845C13.1802 23.1002 12.7551 22.7312 12.3858 22.6632C11.4575 22.4922 11.1858 22.6404 9.65583 24.1527L8.23276 25.5593V31.5189V37.4785H23.1024H37.9721V31.5242V25.57L33.819 21.4228C31.5348 19.142 29.5188 17.2211 29.339 17.1543C28.9398 17.0058 28.3712 17.0086 27.9815 17.1608ZM42.7931 33.9186C42.3628 34.1178 41.977 34.5276 41.8135 34.9593C41.7375 35.1597 41.6895 36.4285 41.6895 38.2358V41.1852L38.5612 41.2196C35.6118 41.252 35.4145 41.2677 35.1123 41.4935C34.5028 41.9489 34.3128 42.32 34.3128 43.0546C34.3128 43.7891 34.5028 44.1603 35.1123 44.6157C35.4145 44.8415 35.6119 44.8572 38.5558 44.8896L41.6789 44.9239L41.7132 48.047C41.7456 50.9909 41.7613 51.1883 41.9871 51.4904C42.4425 52.1 42.8137 52.29 43.5482 52.29C44.2827 52.29 44.6539 52.1 45.1093 51.4904C45.3351 51.1883 45.3508 50.9909 45.3832 48.047L45.4175 44.9239L48.5406 44.8896C51.4845 44.8572 51.6819 44.8415 51.9841 44.6157C52.5936 44.1603 52.7837 43.7891 52.7837 43.0546C52.7837 42.32 52.5936 41.9489 51.9841 41.4935C51.6819 41.2677 51.4845 41.252 48.5406 41.2196L45.4175 41.1853L45.3832 38.0622C45.3508 35.1182 45.3351 34.9209 45.1093 34.6187C44.9776 34.4424 44.7331 34.1961 44.5662 34.0714C44.1812 33.784 43.256 33.7042 42.7931 33.9186Z" fill="url(#paint0_linear_1360_6784)"></path>
<defs>
<linearGradient id="paint0_linear_1360_6784" x1="0.775391" y1="0.290039" x2="63.1273" y2="31.863" gradientUnits="userSpaceOnUse">
<stop offset="0" stop-color="#FC466B"></stop>
<stop offset="1" stop-color="#3F5EFB"></stop>
</linearGradient>
</defs>
</svg>