<svg width="53" height="53" viewBox="0 0 53 53" fill="none" xmlns="http://www.w3.org/2000/svg">
<path fill-rule="evenodd" clip-rule="evenodd" d="M16.1383 0.484227C14.356 0.860113 12.9518 1.64327 11.5862 3.02321C10.6607 3.95841 10.2448 4.58099 9.70598 5.83764C9.10249 7.24531 9.04713 7.75942 9.04713 11.9596V15.7217H6.60636C4.63308 15.7217 4.09348 15.7518 3.78939 15.8789C3.30768 16.0801 2.9844 16.3842 2.73496 16.8707C2.55337 17.2248 2.46257 18.5754 1.67291 32.6638C1.198 41.137 0.834506 48.3439 0.865077 48.679C0.939929 49.4992 1.48492 50.5987 2.09562 51.1617C2.35176 51.3978 2.86669 51.7356 3.23973 51.9123L3.91818 52.2338L12.6363 52.2619L21.3544 52.29L21.0481 51.7541C20.5463 50.8757 20.2064 49.714 20.1503 48.684C20.0802 47.3993 21.2747 30.5137 21.4941 29.6871C21.583 29.352 21.7967 28.8136 21.969 28.4905C22.3384 27.7973 23.3651 26.7981 24.0807 26.4355C25.0796 25.9293 25.5567 25.8812 29.5883 25.8796L33.3208 25.878L33.3224 25.5987C33.3232 25.4452 33.2294 23.5599 33.1138 21.4093C32.8841 17.1354 32.8386 16.8677 32.2455 16.2916C31.7262 15.7873 31.3557 15.7217 29.0271 15.7217H26.9405L26.8976 11.7861C26.8582 8.17319 26.8371 7.78644 26.6401 7.06869C25.3434 2.34436 20.8064 -0.500228 16.1383 0.484227ZM19.0578 3.43952C21.0929 3.80606 22.9498 5.49415 23.6307 7.59662C23.7875 8.08087 23.8169 8.65836 23.8511 11.9385L23.8906 15.7217H25.4149H26.9391L26.9053 17.4919C26.8748 19.0912 26.8513 19.2891 26.6621 19.5423C25.9498 20.4954 24.7255 20.5189 24.106 19.5915C23.8884 19.2659 23.8754 19.1471 23.8754 17.484V15.7217H17.9931H12.1108L12.0771 17.4919C12.0465 19.0912 12.023 19.2891 11.8338 19.5423C11.1216 20.4954 9.89722 20.5189 9.27768 19.5915C9.06013 19.2659 9.04713 19.1471 9.04713 17.484V15.7217H10.5706H12.094V12.1212C12.094 8.24825 12.1314 7.86667 12.6163 6.79071C13.1511 5.60404 14.1823 4.53306 15.3767 3.92367C16.3754 3.41413 17.8446 3.22096 19.0578 3.43952ZM25.5512 29.116C25.0592 29.3441 24.75 29.6658 24.5405 30.1669C24.3525 30.6169 23.1191 47.4507 23.1953 48.5267C23.3196 50.2806 24.5089 51.7012 26.2221 52.1423C26.705 52.2666 28.5327 52.2847 38.2574 52.2613L49.7233 52.2338L50.4018 51.9123C50.7748 51.7356 51.2885 51.3988 51.5432 51.164C52.1062 50.6451 52.6795 49.5443 52.7705 48.8073C52.81 48.4873 52.5867 44.707 52.2139 39.386C51.5135 29.3914 51.5909 29.908 50.6992 29.2813L50.2644 28.9757L38.1109 28.9517C26.4605 28.9287 25.9406 28.9355 25.5512 29.116ZM34.1735 33.7254C34.8222 34.0974 34.9458 34.4525 34.9458 35.945C34.9458 37.6133 35.0991 38.1231 35.8176 38.8461C36.7267 39.7606 38.0143 39.9388 39.1407 39.3063C40.2472 38.6847 40.6334 37.8064 40.6334 35.9111C40.6334 34.5311 40.7437 34.1556 41.2567 33.7897C41.7089 33.4671 42.5217 33.4505 42.9302 33.7555C43.5634 34.2282 43.6268 34.4107 43.6619 35.8637C43.7195 38.2404 43.2372 39.6416 41.8995 40.984C40.1007 42.7892 37.5564 43.2269 35.2613 42.1262C34.5871 41.8028 34.2465 41.553 33.6334 40.9325C32.3256 39.6085 31.9038 38.4302 31.9006 36.0919C31.8992 34.9852 31.9308 34.7123 32.1012 34.3603C32.4861 33.5654 33.4039 33.2843 34.1735 33.7254Z" fill="url(#paint0_linear_1360_6776)"></path>
<defs>
<linearGradient id="paint0_linear_1360_6776" x1="0.863281" y1="0.290039" x2="63.1466" y2="31.7697" gradientUnits="userSpaceOnUse">
<stop offset="0" stop-color="#FC466B"></stop>
<stop offset="1" stop-color="#3F5EFB"></stop>
</linearGradient>
</defs>
</svg>