<svg width="53" height="53" viewBox="0 0 53 53" fill="none" xmlns="http://www.w3.org/2000/svg">
<path fill-rule="evenodd" clip-rule="evenodd" d="M34.2269 0.399988C33.9474 0.472951 33.4673 0.660947 33.1599 0.817847C32.8525 0.974646 27.4267 4.11499 21.1026 7.79646L9.60418 14.4899H7.22456C4.62127 14.4899 4.19681 14.5551 3.23294 15.1022C2.12722 15.7299 1.18226 17.068 0.946406 18.3399C0.811048 19.0698 0.808813 47.5429 0.944068 48.3685C1.25513 50.2683 2.86894 51.8821 4.76872 52.1932C5.13872 52.2538 13.1399 52.2907 25.7417 52.29C48.1149 52.2887 46.9308 52.3213 48.0592 51.6757C49.1098 51.0747 49.8778 50.1284 50.2976 48.918C50.4576 48.4565 50.4844 48.0453 50.4851 46.0253C50.486 43.793 50.4749 43.6557 50.273 43.3832C49.8705 42.8401 49.9165 42.8449 44.9864 42.8433C41.3499 42.8421 40.2187 42.8098 39.5176 42.6876C36.2167 42.112 33.6135 40.0351 32.323 36.9478C31.7693 35.6229 31.6864 35.1532 31.6865 33.3403C31.6865 31.9543 31.7203 31.5976 31.9158 30.9229C32.8809 27.5924 35.3118 25.1874 38.6981 24.2126C39.3551 24.0235 39.8032 24.0032 44.5594 23.9488C49.5814 23.8912 49.7164 23.8844 49.9961 23.6767C50.4972 23.3046 50.5601 22.9106 50.5052 20.4855C50.4415 17.6638 50.2629 17.07 49.138 15.9378C48.454 15.2495 47.7942 14.8732 46.8267 14.6198L46.1264 14.4364L42.6954 8.44215C39.242 2.4085 38.7699 1.68486 37.8944 1.08257C36.9123 0.406797 35.3288 0.1121 34.2269 0.399988ZM36.2574 2.8604C36.6681 3.0553 37.3595 3.72792 37.2518 3.82771C37.2089 3.86735 33.0784 6.28264 28.0727 9.19495L18.9716 14.4899H16.6964C15.3156 14.4899 14.4592 14.4533 14.5178 14.3968C14.7339 14.1883 34.2351 2.8922 34.6217 2.75156C35.1004 2.57739 35.7525 2.62078 36.2574 2.8604ZM42.0946 12.1641C42.7695 13.344 43.3218 14.35 43.3218 14.3997C43.3218 14.4511 41.1271 14.4899 38.2239 14.4899C35.4201 14.4899 33.1536 14.4624 33.1873 14.4287C33.2952 14.3206 40.7139 10.0187 40.7921 10.0187C40.8335 10.0187 41.4196 10.9841 42.0946 12.1641ZM39.786 26.3889C37.3169 26.8102 35.0942 28.7748 34.3103 31.2289C33.0948 35.0338 35.3098 39.1048 39.2021 40.2197C40.0056 40.4498 40.1027 40.4537 45.0493 40.4537H50.0795L50.74 40.1374C51.8263 39.6171 52.5388 38.7476 52.7708 37.6592C52.854 37.2686 52.8798 35.8759 52.8566 33.0355L52.8232 28.9707L52.5519 28.3919C52.2058 27.6534 51.4984 26.946 50.76 26.5999L50.1811 26.3286L45.2526 26.3128C42.5419 26.3041 40.0819 26.3384 39.786 26.3889ZM41.9786 31.2117C43.0638 31.665 43.6688 33.0089 43.277 34.0955C43.0339 34.7694 42.6754 35.1736 42.0486 35.4802C40.8705 36.0566 39.5538 35.5865 38.9318 34.3674C38.5278 33.5755 38.7476 32.2772 39.385 31.6912C40.0582 31.0722 41.1579 30.8689 41.9786 31.2117Z" fill="url(#paint0_linear_1360_6767)"></path>
<defs>
<linearGradient id="paint0_linear_1360_6767" x1="0.84375" y1="0.290039" x2="63.2046" y2="31.8753" gradientUnits="userSpaceOnUse">
<stop offset="0" stop-color="#FC466B"></stop>
<stop offset="1" stop-color="#3F5EFB"></stop>
</linearGradient>
</defs>
</svg>