<svg width="40" height="43" viewBox="0 0 40 43" fill="none" xmlns="http://www.w3.org/2000/svg">
<path fill-rule="evenodd" clip-rule="evenodd" d="M19.5934 0.307049C18.277 0.495601 17.3822 0.743716 16.6016 1.13668C15.8408 1.51961 5.01121 7.66212 4.46388 8.02106C2.62445 9.22763 1.29934 11.2172 0.853549 13.4416C0.759807 13.9091 0.738282 15.3765 0.738282 21.2876C0.738282 29.0766 0.735653 29.0209 1.16 30.2728C1.40729 31.0025 1.98593 32.0867 2.44962 32.6893C2.93591 33.3214 3.79035 34.1123 4.46388 34.5542C5.25095 35.0704 16.1505 41.2242 16.8725 41.5599C17.206 41.715 17.8345 41.9372 18.2691 42.0538C18.9578 42.2384 19.2232 42.2656 20.3328 42.2656C21.4425 42.2656 21.7079 42.2384 22.3966 42.0538C22.8312 41.9372 23.4597 41.7154 23.7932 41.5607C24.5283 41.2198 35.6253 34.9506 36.2929 34.4991C38.0605 33.3035 39.3288 31.3738 39.8195 29.1337C39.9042 28.7469 39.9274 27.0566 39.9274 21.2876C39.9274 15.5186 39.9042 13.8283 39.8195 13.4416C39.4222 11.6279 38.5358 10.0397 37.2494 8.83623C36.7504 8.36941 36.1301 7.93891 35.1623 7.38746C30.3151 4.62566 24.2749 1.23863 23.819 1.02691C22.6194 0.469557 20.7191 0.145856 19.5934 0.307049ZM22.2489 1.93714C22.6476 2.0529 23.1283 2.22551 23.317 2.32073C23.8495 2.58922 34.9459 8.87279 35.4087 9.1679C36.7941 10.0513 37.889 11.5987 38.3454 13.3183L38.5307 14.0167V21.2876V28.5585L38.3454 29.2569C37.889 30.9765 36.7941 32.524 35.4087 33.4073C34.6489 33.8918 23.6097 40.1149 23.1475 40.3193C21.5203 41.0389 19.3784 41.0611 17.6841 40.3758C16.8599 40.0424 5.27444 33.4523 4.70501 32.9929C3.58003 32.0853 2.70045 30.7083 2.31866 29.2569C2.13512 28.5593 2.13496 28.5512 2.13496 21.2876V14.0167L2.32031 13.3183C2.7771 11.5971 3.81565 10.1244 5.22868 9.19411C5.47014 9.03513 8.32963 7.40127 11.5831 5.56324C17.6516 2.13497 18.0742 1.92424 19.2648 1.73306C20.0497 1.60703 21.4393 1.70208 22.2489 1.93714ZM19.2576 3.86965C19.0955 3.91072 18.7765 4.01769 18.5487 4.10749C17.9688 4.33605 6.59537 10.7848 6.06233 11.1872C5.25489 11.7969 4.63748 12.7603 4.35642 13.8491C4.16811 14.5783 4.16639 27.9863 4.35444 28.7262C4.64462 29.8677 5.31519 30.8613 6.22961 31.5048C7.06794 32.0948 18.1966 38.3469 18.7719 38.5511C19.22 38.7103 19.471 38.7409 20.3328 38.7418C21.231 38.7427 21.4319 38.7165 21.9349 38.533C22.3901 38.3668 32.9018 32.4999 34.2585 31.6548C35.1659 31.0896 36.0203 29.8705 36.3112 28.7262C36.4977 27.9926 36.4977 14.5826 36.3112 13.8491C36.0239 12.7189 35.2431 11.5766 34.3617 10.9971C33.4341 10.3872 22.498 4.2534 21.9856 4.05557C21.539 3.8832 21.2733 3.84122 20.4972 3.82035C19.9775 3.80638 19.4197 3.82857 19.2576 3.86965ZM21.373 5.33616C21.8275 5.4796 32.5866 11.5016 33.5549 12.1546C34.1297 12.5421 34.663 13.2685 34.8738 13.951C35.0337 14.4685 35.039 14.7059 35.039 21.2876C35.039 27.8693 35.0337 28.1067 34.8738 28.6242C34.663 29.3068 34.1297 30.0331 33.5549 30.4206C32.5866 31.0736 21.8275 37.0956 21.373 37.2391C20.3741 37.5544 19.3171 37.3866 18.1991 36.7354C17.9041 36.5636 15.3045 35.0888 12.4222 33.458C9.5399 31.8273 7.05118 30.3935 6.89171 30.2719C6.45965 29.9424 5.97344 29.2121 5.78949 28.6166C5.63273 28.1089 5.62665 27.837 5.62665 21.2863C5.62665 14.8401 5.63479 14.457 5.78234 13.9831C5.97935 13.35 6.3733 12.7334 6.808 12.3776C6.99425 12.2252 9.5127 10.7622 12.4046 9.12633C15.2966 7.49049 17.9209 6.00171 18.2364 5.81793C18.552 5.63414 19.0141 5.41848 19.2634 5.33862C19.8653 5.14596 20.7672 5.14489 21.373 5.33616ZM8.66015 15.2016L8.42001 15.4418V21.2876V27.1334L8.66015 27.3736C8.80492 27.5184 8.98689 27.6137 9.11835 27.6137C9.2498 27.6137 9.43178 27.5184 9.57654 27.3736L9.81669 27.1334L9.82096 22.9165L9.82523 18.6996L12.0187 23.054C13.8665 26.7222 14.2487 27.4257 14.4441 27.5184C14.7252 27.6519 15.0131 27.591 15.2368 27.3508C15.4009 27.1746 15.4034 27.0852 15.4034 21.2876C15.4034 15.49 15.4009 15.4006 15.2368 15.2245C15.0132 14.9845 14.7249 14.9233 14.4465 15.0568C14.008 15.267 14.0096 15.251 14.0034 19.7266L13.9978 23.8756L11.8284 19.5487C10.4865 16.8724 9.58812 15.1723 9.4731 15.0917C9.19541 14.8972 8.92848 14.9333 8.66015 15.2016ZM17.7796 15.2016L17.5395 15.4418V21.2876V27.1334L17.7892 27.3832C17.9981 27.592 18.0822 27.6247 18.3027 27.5824C18.4478 27.5545 18.6496 27.4373 18.7513 27.3217C18.9345 27.1135 18.9362 27.0888 18.9362 24.5693V22.027L20.2712 22.0265C21.8879 22.026 22.1903 21.9597 22.3533 21.5695C22.4556 21.3247 22.4556 21.2505 22.3533 21.0057C22.1903 20.6156 21.8879 20.5492 20.2712 20.5487L18.9362 20.5482V18.4532V16.3582H21.5278H24.1196L24.3212 16.1565C24.6181 15.8595 24.5967 15.4491 24.2701 15.1742L24.0174 14.9615H21.0185H18.0198L17.7796 15.2016ZM25.632 15.0607C25.2107 15.3023 25.1308 15.8234 25.464 16.1565C25.6596 16.3522 25.7014 16.3582 26.8607 16.3582H28.0557V21.7458V27.1334L28.3054 27.3832C28.5143 27.592 28.5984 27.6247 28.8189 27.5824C28.964 27.5545 29.1658 27.4373 29.2675 27.3217L29.4523 27.1116V21.7349V16.3582H30.6473C31.8066 16.3582 31.8484 16.3522 32.044 16.1565C32.3267 15.8738 32.312 15.5081 32.0055 15.2016L31.7654 14.9615L28.7809 14.9639C26.6907 14.9658 25.7471 14.9948 25.632 15.0607Z" fill="#3772FF"></path>
</svg>