<svg width="43" height="43" viewBox="0 0 43 43" fill="none" xmlns="http://www.w3.org/2000/svg">
<path fill-rule="evenodd" clip-rule="evenodd" d="M5.76997 0.627283C3.2684 0.977649 1.28659 2.6814 0.537542 5.12561C0.335132 5.78591 0.324473 6.61085 0.324473 21.578C0.324473 38.6676 0.291452 37.779 0.978396 39.1877C1.65364 40.5728 2.85443 41.6379 4.43583 42.2546L5.19067 42.549L20.9774 42.5804C34.7061 42.6076 36.8622 42.5889 37.5167 42.4371C39.7492 41.9194 41.6241 40.0599 42.1459 37.8458C42.403 36.7551 42.4093 23.9336 42.1531 23.071C41.7963 21.8691 40.8466 20.8918 39.723 20.5699C39.465 20.4959 39.2339 20.4204 39.2092 20.4019C39.1845 20.3834 39.5869 19.922 40.1033 19.3764C42.5334 16.8092 42.9969 13.4197 41.3155 10.5132C40.6615 9.38261 33.6716 2.39232 32.534 1.73121C31.4043 1.07474 30.4099 0.769677 29.174 0.700391C27.0261 0.580011 25.1356 1.30635 23.4932 2.88311L22.5403 3.79807L22.342 3.19188C21.9815 2.08957 21.2719 1.32489 20.1368 0.815094C19.7092 0.623111 19.1497 0.605964 12.8955 0.592872C9.16762 0.584993 5.96115 0.600519 5.76997 0.627283ZM19.4171 3.22374C19.926 3.4557 20.0789 3.89748 20.0789 5.13627V6.26975L18.2428 8.13072C16.605 9.7909 16.3543 10.0982 15.9212 10.9766C15.0429 12.7578 14.9098 14.5718 15.5218 16.421C15.8973 17.5555 16.4003 18.3635 17.4156 19.4635L18.2445 20.3614H10.5299H2.8155L2.81492 13.207C2.81423 4.89876 2.75873 5.35351 3.91514 4.19837C5.05464 3.06003 4.6168 3.11646 12.3976 3.10661C17.0169 3.1007 19.228 3.13766 19.4171 3.22374ZM29.7187 3.22652C31.0085 3.49637 31.3984 3.81093 35.3445 7.76564C38.4689 10.897 39.1163 11.6026 39.3649 12.1475C39.8052 13.1127 39.936 13.9848 39.7771 14.8968C39.5112 16.4236 39.3644 16.6137 35.3212 20.6646C31.985 24.0074 31.5262 24.4251 30.8108 24.7717C29.3286 25.4901 27.3824 25.3453 26.0554 24.4182C25.7952 24.2364 23.9556 22.4541 21.9676 20.4576C17.8108 16.2834 17.7533 16.203 17.6674 14.4363C17.6122 13.3022 17.7991 12.5442 18.3489 11.6718C18.8352 10.9002 25.8243 3.98913 26.4224 3.68847C27.5011 3.14612 28.599 2.99225 29.7187 3.22652ZM20.0789 31.4883V40.1821L12.8665 40.149L5.65411 40.1159L4.99138 39.8052C4.12335 39.3983 3.35796 38.6025 3.05429 37.7909C2.82257 37.1716 2.8155 36.9399 2.8155 29.9736V22.7945H11.4472H20.0789V31.4883ZM39.1407 22.9772C39.918 23.3461 39.904 23.1995 39.8668 30.5843L39.8333 37.2193L39.532 37.8619C39.1019 38.7788 38.5931 39.3029 37.7115 39.7369L36.942 40.1159H29.7559H22.5699L22.5401 32.3736L22.5104 24.6314L23.437 25.4799C25.0964 26.999 26.4346 27.6197 28.3051 27.7375C29.5965 27.8189 30.7396 27.5754 32.0127 26.9479C32.8917 26.5146 33.1966 26.2659 34.8513 24.6314L36.7051 22.8002L37.7303 22.7974C38.4291 22.7955 38.8782 22.8527 39.1407 22.9772Z" fill="#3772FF"></path>
</svg>