<svg width="47" height="43" viewBox="0 0 47 43" fill="none" xmlns="http://www.w3.org/2000/svg">
<path fill-rule="evenodd" clip-rule="evenodd" d="M32.7423 1.26633C30.2931 1.9098 28.195 2.45999 28.0798 2.4889C27.7902 2.56155 27.5629 3.05618 27.6789 3.36132C27.736 3.51135 28.2051 3.89596 28.9991 4.4436C30.0742 5.18536 30.2192 5.31466 30.1404 5.46186C29.8993 5.91249 28.6116 7.51031 27.7494 8.42892C26.7928 9.448 26.6878 9.63467 26.8437 10.0406C26.9346 10.2776 27.407 10.4425 27.7012 10.34C28.304 10.1298 31.2982 6.47213 31.7473 5.39713C31.9387 4.93914 31.7852 4.70992 30.8656 4.07999C30.4257 3.77876 30.0475 3.50253 30.0251 3.46634C29.981 3.39469 36.8656 1.58547 36.9315 1.65139C36.9536 1.67349 37.1134 3.11937 37.2866 4.86458C37.4598 6.6097 37.626 8.21679 37.6559 8.43592L37.7103 8.83426L36.8619 8.24389C35.9069 7.57932 35.6897 7.48539 35.4292 7.62478C35.3292 7.67824 34.8641 8.20224 34.3956 8.78907C31.2362 12.7467 27.6013 15.6887 23.0958 17.9348C18.5883 20.1819 13.7785 21.4774 7.84952 22.0415C7.29406 22.0944 7.23587 22.0842 7.23642 21.9336C7.23696 21.7999 7.50119 21.6803 8.57756 21.3262C13.4739 19.7153 17.9781 17.6104 21.6928 15.1972C22.6629 14.5671 25.0819 12.7854 25.761 12.201C26.174 11.8454 26.2403 11.4403 25.9351 11.135C25.5718 10.7718 25.2746 10.8268 24.5974 11.3826C20.3592 14.8612 14.8399 17.781 8.3948 19.9539C7.40699 20.287 6.49575 20.6405 6.36991 20.7395C5.6717 21.2887 5.67488 22.521 6.37591 23.0724C6.82717 23.4274 7.15168 23.4736 8.39816 23.3606C17.0155 22.5787 24.6016 19.6277 30.4817 14.7701C31.7908 13.6885 33.9192 11.5501 34.92 10.3107C35.3641 9.7606 35.7509 9.28279 35.7796 9.24879C35.8082 9.21487 36.3826 9.57284 37.056 10.0444C37.7294 10.5159 38.3705 10.9017 38.4806 10.9017C38.7996 10.9017 38.9665 10.8061 39.0951 10.5497C39.1983 10.3442 39.1473 9.64185 38.7314 5.53715C38.4652 2.9117 38.2461 0.699685 38.2443 0.621671C38.238 0.342714 37.8888 0.0813058 37.5329 0.0890344C37.3473 0.093126 35.1916 0.622853 32.7423 1.26633ZM35.5588 16.8901C35.4088 16.9827 35.2106 17.1435 35.1183 17.2474C34.6936 17.7255 34.7032 17.4441 34.699 29.4276L34.695 40.725H33.6039H32.5128V31.8431C32.5128 22.978 32.5125 22.9604 32.32 22.5628C32.2038 22.3228 31.9805 22.0673 31.7583 21.9203L31.3896 21.6763H28.4733C25.5883 21.6763 25.5535 21.6786 25.2207 21.8854C25.0357 22.0005 24.7902 22.246 24.6751 22.431L24.466 22.7674L24.4415 31.7462L24.4171 40.725H23.3277H22.2384L22.2344 34.383C22.2302 27.6887 22.2259 27.6158 21.8151 27.1615C21.7228 27.0595 21.4923 26.8969 21.3029 26.8002C20.9803 26.6356 20.7755 26.6261 18.0678 26.6508L15.1772 26.6771L14.8336 26.9394C14.1665 27.4485 14.1503 27.5467 14.1481 31.1054C14.1467 33.2609 14.1786 34.3323 14.2488 34.4862C14.4429 34.9124 15.1444 34.9923 15.3875 34.616C15.4298 34.5503 15.4849 33.0441 15.5099 31.2688L15.5554 28.041L18.1405 28.0168C20.148 27.9981 20.7419 28.0184 20.7987 28.1077C20.8388 28.171 20.8723 31.0359 20.8731 34.4739L20.8745 40.725H18.1922H15.5099V38.695C15.5099 36.6908 15.5073 36.6626 15.2995 36.4674C15.0017 36.1877 14.5729 36.2062 14.3345 36.5093C14.1569 36.735 14.1461 36.8633 14.1461 38.7369V40.725H13.055H11.9639L11.9633 36.9289C11.963 34.5982 11.9266 33.0022 11.8689 32.7946C11.8173 32.6087 11.6695 32.331 11.5403 32.1776C11.0846 31.636 11.0616 31.6325 7.9119 31.6325C5.17643 31.6325 5.01631 31.6418 4.70071 31.8192C4.51804 31.9219 4.26691 32.1542 4.1428 32.3353L3.91703 32.6646L3.89157 36.6949L3.86611 40.725H2.32903C1.48361 40.725 0.680113 40.7676 0.543453 40.8195C0.0467315 41.0083 -0.10093 41.526 0.238128 41.8898L0.423523 42.0889H23.3294H46.2354L46.4208 41.8898C46.7598 41.526 46.6122 41.0083 46.1154 40.8195C45.9788 40.7676 45.174 40.725 44.3271 40.725H42.7873V34.2768C42.7873 30.7303 42.7619 27.7623 42.7309 27.6814C42.6457 27.4594 42.187 27.2556 41.9222 27.3221C41.4053 27.4518 41.4235 27.1997 41.4235 34.2442V40.725H38.7412H36.0589L36.0603 29.5185C36.0611 23.3549 36.0945 18.2602 36.1347 18.197C36.1915 18.1076 36.7854 18.0873 38.7929 18.106L41.378 18.1302L41.4018 21.8079C41.4253 25.4367 41.4282 25.4884 41.6222 25.695C41.9006 25.9913 42.353 25.9773 42.5988 25.6647C42.7826 25.4312 42.7873 25.331 42.7873 21.6927C42.7873 18.0891 42.7808 17.9467 42.5967 17.5667C42.4696 17.3042 42.2776 17.0976 42.0205 16.9469L41.6348 16.7209L38.7332 16.7212C36.0674 16.7215 35.8094 16.7353 35.5588 16.8901ZM31.0399 23.1038C31.1232 23.1872 31.149 25.2799 31.149 31.969V40.725H28.4667H25.7844V31.969C25.7844 25.2799 25.8101 23.1872 25.8935 23.1038C26.0491 22.9482 30.8843 22.9482 31.0399 23.1038ZM10.5448 33.1402C10.5752 33.2193 10.6 34.9583 10.6 37.0045V40.725H7.91772H5.23544V36.9213C5.23544 34.8293 5.26272 33.0903 5.29609 33.057C5.32936 33.0237 6.51157 32.9964 7.92317 32.9964C10.1796 32.9964 10.4962 33.0138 10.5448 33.1402Z" fill="#3772FF"></path>
</svg>