<svg width="34" height="43" viewBox="0 0 34 43" fill="none" xmlns="http://www.w3.org/2000/svg">
<path fill-rule="evenodd" clip-rule="evenodd" d="M15.9426 0.513137C15.1942 0.608195 14.2486 0.813909 13.6679 1.00797C10.3509 2.11674 7.77434 4.88468 6.91709 8.26025C6.64579 9.32888 6.57018 10.3314 6.5985 12.4878C6.62436 14.4514 6.6338 14.556 6.81735 14.9094C7.20095 15.6479 7.89123 16.1503 8.68634 16.2695L9.02447 16.3202L9.20129 17.0185C9.77665 19.2906 11.3738 21.2184 13.5105 22.2197C14.7041 22.779 15.2937 22.9017 16.8045 22.9049C18.2277 22.9078 18.5779 22.8451 19.8296 22.3631C21.2531 21.8149 22.7925 20.4806 23.6287 19.0702C23.9955 18.4514 24.4514 17.2632 24.5963 16.5477C24.6327 16.368 24.7057 16.3251 25.1204 16.2393C25.9726 16.0634 26.6606 15.4556 26.9511 14.6221C27.0386 14.3713 27.0645 13.7709 27.0611 12.0774C27.0563 9.73448 27.0003 9.18334 26.6407 7.93493C25.5698 4.21788 22.4716 1.39157 18.6641 0.658269C18.0133 0.53292 16.4453 0.449354 15.9426 0.513137ZM18.2821 3.14153C21.0783 3.671 23.4089 5.83445 24.2828 8.71174C24.4973 9.41803 24.5087 9.54535 24.5425 11.6054L24.5778 13.7602H24.1389C23.5436 13.7602 22.5583 13.5633 21.6798 13.2691C20.4955 12.8722 19.582 12.3694 18.3139 11.4161C17.3259 10.6733 17.263 10.6405 16.8304 10.6421C16.4287 10.6437 16.1608 10.786 15.2696 11.471C13.5543 12.7894 11.5444 13.6165 9.7654 13.7362L9.04712 13.7845V12.3445C9.04712 11.5525 9.08579 10.5275 9.13307 10.0669C9.45913 6.89003 11.6285 4.25868 14.7119 3.30013C15.9024 2.92999 16.9248 2.8846 18.2821 3.14153ZM17.6831 14.0207C18.8509 14.801 20.3726 15.5097 21.6272 15.8574C22.1902 16.0134 22.2091 16.0912 21.8907 16.9371C21.232 18.6872 19.7171 19.9846 17.8918 20.3615C16.7011 20.6075 15.5944 20.461 14.475 19.9091C13.0733 19.2182 11.8187 17.6426 11.5651 16.2548L11.5185 15.9994L12.1503 15.8192C13.449 15.4489 15.1139 14.6475 16.2299 13.8554C16.5459 13.6311 16.8414 13.4691 16.8866 13.4955C16.9317 13.5217 17.2901 13.7581 17.6831 14.0207ZM7.77598 24.8965C4.07313 25.5661 1.15611 28.5605 0.592077 32.2712C0.536093 32.6393 0.513026 34.4444 0.527802 37.2931C0.550294 41.6172 0.555548 41.7467 0.717755 41.9639C0.80953 42.0868 1.01212 42.2556 1.16801 42.3393C1.44087 42.4856 2.01985 42.4912 16.8455 42.4912C31.6712 42.4912 32.2502 42.4856 32.5231 42.3393C32.679 42.2556 32.8816 42.0868 32.9733 41.9639C33.1355 41.7467 33.1408 41.6172 33.1633 37.2931C33.1781 34.4444 33.155 32.6393 33.099 32.2712C32.529 28.5213 29.5986 25.5436 25.8343 24.889C24.7767 24.7052 8.79758 24.7117 7.77598 24.8965ZM13.0212 28.1689C12.5353 28.6892 12.1121 29.0863 12.0805 29.0513C12.0223 28.9868 11.2635 27.3202 11.2635 27.257C11.2635 27.2382 11.8578 27.2227 12.584 27.2227H13.9045L13.0212 28.1689ZM22.4276 27.257C22.4276 27.3202 21.6687 28.9868 21.6106 29.0513C21.579 29.0863 21.1558 28.6892 20.6699 28.1689L19.7866 27.2227H21.1071C21.8333 27.2227 22.4276 27.2382 22.4276 27.257ZM9.583 29.6238C10.7167 32.1104 10.917 32.4193 11.462 32.5216C12.0989 32.6411 12.2849 32.5117 13.9513 30.7919C14.8034 29.9124 15.5264 29.1929 15.558 29.1929C15.5896 29.1929 15.6059 31.6216 15.5943 34.5902L15.5732 39.9875L9.27287 40.0085L2.97257 40.0295V36.5475C2.97257 32.7622 3.01 32.332 3.43128 31.2721C4.03832 29.7447 5.14069 28.574 6.63758 27.867C7.23526 27.5847 8.04039 27.3305 8.39649 27.3116C8.48818 27.3068 8.83296 27.9787 9.583 29.6238ZM25.8675 27.4311C27.8065 27.8882 29.5054 29.3739 30.2598 31.2721C30.6811 32.3319 30.7185 32.7622 30.7185 36.547V40.0286H24.3977H18.0769V34.5495V29.0705L19.6827 30.7306C21.4098 32.5162 21.5884 32.6418 22.2291 32.5216C22.7741 32.4193 22.9744 32.1104 24.1081 29.6238C24.6896 28.3483 25.205 27.3054 25.2536 27.306C25.3021 27.3067 25.5783 27.363 25.8675 27.4311Z" fill="#3772FF"></path>
</svg>