<svg width="46" height="53" viewBox="0 0 46 53" fill="none" xmlns="http://www.w3.org/2000/svg">
<path fill-rule="evenodd" clip-rule="evenodd" d="M28.3609 1.13138C27.6679 1.49733 27.5724 1.84714 27.5724 4.02065C27.5724 5.71207 27.5936 5.95001 27.7769 6.30927C28.0069 6.76006 28.5922 7.11942 29.0963 7.11942C29.6005 7.11942 30.1858 6.76006 30.4158 6.30927C30.5991 5.95001 30.6203 5.71207 30.6203 4.02065C30.6203 2.32923 30.5991 2.09128 30.4158 1.73203C30.0409 0.997163 29.1232 0.728941 28.3609 1.13138ZM19.5477 4.58208C19.0945 4.68836 18.5631 5.26534 18.4722 5.74946C18.3386 6.46136 18.5314 6.77591 19.9749 8.20297C21.4271 9.63857 21.7337 9.81911 22.4464 9.65828C23.3516 9.45416 23.8862 8.34663 23.4659 7.54613C23.2241 7.08559 20.6208 4.57944 20.3841 4.57944C20.2676 4.57944 20.1113 4.56136 20.037 4.53921C19.9625 4.51716 19.7423 4.53636 19.5477 4.58208ZM37.8452 4.58005C37.5934 4.63939 37.1488 5.01114 36.1872 5.96647C35.4647 6.68437 34.808 7.39526 34.7281 7.54613C34.3052 8.34409 34.8403 9.45396 35.7463 9.65828C36.459 9.81911 36.7655 9.63857 38.2178 8.20297C39.6676 6.76982 39.8543 6.46299 39.7181 5.73726C39.6342 5.28982 38.9892 4.57944 38.6669 4.57944C38.5532 4.57944 38.3992 4.56136 38.3248 4.53921C38.2503 4.51716 38.0346 4.53545 37.8452 4.58005ZM28.0096 10.5633C27.8311 10.6755 27.6105 10.881 27.5194 11.02C27.4283 11.159 27.1762 12.1492 26.9591 13.2203C26.3092 16.4277 25.8504 17.7872 24.9655 19.1275C24.1062 20.4292 23.0592 21.1831 19.5968 22.9931C18.3675 23.6359 16.8725 24.4306 16.2744 24.759L15.5489 25.1577C15.3327 25.2766 15.2159 25.5198 15.2585 25.7628C15.2977 25.9864 15.3297 31.4498 15.3297 37.9039V48.8128C15.3297 49.3602 15.2475 49.9046 15.0858 50.4276C14.9516 50.8617 14.8622 51.2371 14.8871 51.262C14.912 51.2868 15.7305 51.5113 16.7058 51.7608C18.7334 52.2795 21.1901 52.6824 23.2544 52.8348C25.3746 52.9913 40.6895 52.9756 41.2256 52.8164C41.4769 52.7417 41.8274 52.5086 42.1039 52.2322C43.0479 51.2882 43.0479 50.021 42.1039 49.077C41.493 48.466 41.1163 48.3686 39.3674 48.3686C37.6672 48.3686 37.2664 48.2359 36.9208 47.5585C36.6636 47.0544 36.6616 46.639 36.9136 46.1449C37.3075 45.373 37.2844 45.3776 40.9326 45.3206C44.0463 45.272 44.2017 45.2603 44.6057 45.0442C45.3445 44.6492 45.8602 43.823 45.8602 43.0347C45.8602 42.1551 45.099 41.118 44.2736 40.8728C43.9859 40.7874 42.931 40.7487 40.8914 40.7487C38.1213 40.7487 37.9011 40.7353 37.5264 40.5442C37.0756 40.3142 36.7163 39.7288 36.7163 39.2247C36.7163 38.8036 37.0467 38.1818 37.3962 37.9449C37.6576 37.7677 37.9535 37.7473 40.9326 37.7007C44.0463 37.6521 44.2017 37.6404 44.6057 37.4243C45.3445 37.0293 45.8602 36.2031 45.8602 35.4147C45.8602 34.5352 45.099 33.4981 44.2736 33.2529C43.9859 33.1675 42.931 33.1288 40.8914 33.1288C38.1213 33.1288 37.9011 33.1154 37.5264 32.9242C37.0756 32.6942 36.7163 32.1089 36.7163 31.6048C36.7163 31.1837 37.0467 30.5619 37.3962 30.3249C37.6576 30.1478 37.9535 30.1273 40.9326 30.0808C44.0463 30.0321 44.2017 30.0204 44.6057 29.8043C45.3445 29.4093 45.8602 28.5831 45.8602 27.7948C45.8602 26.9153 45.099 25.8782 44.2736 25.633C43.963 25.5407 42.1696 25.5088 37.301 25.5088H31.6936C31.2339 25.5088 30.9146 25.0513 31.0733 24.6198C31.2531 24.131 31.6418 23.1594 31.9372 22.4609C33.271 19.306 33.602 18.0947 33.6029 16.3649C33.6036 14.9081 33.4352 14.2642 32.7488 13.099C31.67 11.2677 29.0878 9.88606 28.0096 10.5633ZM0.929135 22.6704C0.696981 22.793 0.469806 23.0267 0.344941 23.2714C0.143165 23.667 0.140625 23.8469 0.140625 37.7007C0.140625 51.5602 0.143063 51.7343 0.345144 52.1304C0.476816 52.3886 0.692612 52.6044 0.950776 52.7361C1.32852 52.9288 1.54472 52.9406 4.6947 52.9406C6.5436 52.9406 8.28196 52.8942 8.58442 52.8368C10.4091 52.4908 11.8827 51.0172 12.2288 49.1925C12.3707 48.4442 12.3707 26.9572 12.2288 26.209C11.8827 24.3842 10.4091 22.9106 8.58442 22.5646C8.2781 22.5065 6.55803 22.4628 4.67336 22.4653C1.52471 22.4696 1.28463 22.4827 0.929135 22.6704ZM8.47439 44.0012C8.92518 44.2312 9.28454 44.8165 9.28454 45.3206C9.28454 45.8248 8.92518 46.4101 8.47439 46.6401C8.25392 46.7526 7.93266 46.8446 7.76055 46.8446C6.98748 46.8446 6.23657 46.0937 6.23657 45.3206C6.23657 44.8321 6.59613 44.2326 7.02508 44.0062C7.51529 43.7474 7.97381 43.7459 8.47439 44.0012Z" fill="url(#paint0_linear_1448_22273)"></path>
<defs>
<linearGradient id="paint0_linear_1448_22273" x1="0.140625" y1="0.944336" x2="57.6183" y2="26.5299" gradientUnits="userSpaceOnUse">
<stop offset="0" stop-color="#FC466B"></stop>
<stop offset="1" stop-color="#3F5EFB"></stop>
</linearGradient>
</defs>
</svg>