<svg width="19" height="19" viewBox="0 0 19 19" fill="none" xmlns="http://www.w3.org/2000/svg">
<path d="M14 6.63916C14 5.44569 13.5259 4.30109 12.682 3.45718C11.8381 2.61327 10.6935 2.13916 9.5 2.13916C8.30653 2.13916 7.16193 2.61327 6.31802 3.45718C5.47411 4.30109 5 5.44569 5 6.63916C5 11.8892 2.75 13.3892 2.75 13.3892H16.25C16.25 13.3892 14 11.8892 14 6.63916Z" stroke="currentColor" stroke-linecap="round" stroke-linejoin="round"></path>
<path d="M10.7981 16.3887C10.6663 16.616 10.477 16.8047 10.2493 16.9358C10.0216 17.067 9.76341 17.136 9.50063 17.136C9.23784 17.136 8.97967 17.067 8.75196 16.9358C8.52424 16.8047 8.33498 16.616 8.20312 16.3887" stroke="currentColor" stroke-linecap="round" stroke-linejoin="round"></path>
</svg>