<svg width="64" height="53" viewBox="0 0 64 53" fill="none" xmlns="http://www.w3.org/2000/svg">
<path fill-rule="evenodd" clip-rule="evenodd" d="M4.19269 0.857312C2.86134 1.18469 1.59468 2.294 1.0703 3.59191L0.789062 4.28792V26.6867V49.0854L1.08348 49.8178C1.49471 50.8406 2.60159 51.9382 3.59641 52.31C3.9991 52.4603 4.6995 52.6146 5.15273 52.6526L5.97678 52.7217L5.97886 33.9977C5.98117 13.4034 5.9481 14.3409 6.72882 12.7968C7.19803 11.8686 8.31016 10.6251 9.15703 10.0817C9.49869 9.86246 10.145 9.54033 10.5934 9.36578L11.4086 9.04841L20.4898 8.98738L29.5709 8.92635L27.1573 5.93578C24.189 2.25775 23.6039 1.6445 22.5802 1.13879L21.7896 0.748065L13.3033 0.725971C6.8344 0.709005 4.66874 0.740253 4.19269 0.857312ZM12.202 11.4462C10.7866 11.6805 9.43436 12.7185 8.8238 14.0396L8.47909 14.7854L8.44748 33.7376L8.41574 52.6897L34.0199 52.6575C58.1292 52.6271 59.656 52.6127 60.1732 52.4103C60.9805 52.0945 61.881 51.3647 62.3985 50.6068C63.2767 49.3206 63.2327 50.3662 63.1963 31.6165L63.1637 14.7802L62.7633 13.9669C62.0847 12.5885 60.8549 11.6852 59.3187 11.4367C58.313 11.2741 13.1875 11.2832 12.202 11.4462ZM46.964 19.7382C47.4435 19.9053 47.7227 20.3316 47.7227 20.8967C47.7227 21.3016 47.5834 21.4822 46.1358 22.9546C45.2631 23.8423 44.549 24.5979 44.549 24.6337C44.549 24.6694 45.0845 25.1045 45.7391 25.6004C47.1272 26.6522 48.7968 28.2249 50.2616 29.8603C52.0672 31.8763 52.1112 32.0782 51.0379 33.4226C48.0362 37.1829 43.7752 40.4185 40.0911 41.7351C36.5278 43.0084 32.9556 42.8291 29.1993 41.1885L28.3144 40.8019L26.4369 42.6549C24.7057 44.3637 24.5248 44.508 24.1135 44.508C23.2426 44.508 22.659 43.7388 22.9461 42.9693C23.0186 42.7749 23.7682 41.9221 24.612 41.074L26.1463 39.5321L24.9416 38.6416C23.668 37.7001 20.3169 34.4271 19.4224 33.251C18.5157 32.0588 18.5827 31.8535 20.6392 29.5289C24.2008 25.5028 28.438 22.7833 32.6065 21.8485C33.8951 21.5595 36.7529 21.5551 37.9575 21.8402C39.2037 22.1353 40.6765 22.6278 41.5576 23.044L42.2891 23.3897L44.0599 21.6256C45.5776 20.1136 46.1381 19.6544 46.5143 19.6146C46.5546 19.6105 46.757 19.666 46.964 19.7382ZM33.0888 24.1832C30.5717 24.7504 28.0187 26.0988 25.507 28.1879C24.4081 29.1019 21.9124 31.5817 21.7091 31.9615C21.6066 32.153 21.86 32.4577 23.3952 33.9884C24.3888 34.9792 25.8053 36.2412 26.543 36.7928L27.8841 37.7957L28.7653 36.9101L29.6463 36.0246L29.161 35.048C27.3743 31.4528 29.094 27.1266 32.9069 25.6243C33.6578 25.3283 33.9071 25.2931 35.2721 25.289C36.9173 25.2841 37.7909 25.4929 38.8044 26.1326L39.2659 26.424L39.8923 25.7896L40.5187 25.1554L39.6348 24.8236C38.0259 24.2196 37.3644 24.0934 35.5773 24.0496C34.3942 24.0205 33.6285 24.0617 33.0888 24.1832ZM41.8124 27.2871L40.9743 28.1317L41.2868 28.6649C42.0386 29.9477 42.3739 31.8214 42.1124 33.2781C41.883 34.555 41.1106 36.0105 40.1671 36.9433C37.9765 39.1091 34.8721 39.5798 32.093 38.1676L31.3289 37.7792L30.7379 38.3613C30.4129 38.6815 30.1878 38.9785 30.2377 39.0212C30.6936 39.4122 33.1571 40.0636 34.6079 40.1769C38.7966 40.5038 43.8792 37.839 48.1926 33.0542L49.0805 32.0693L47.6462 30.5925C46.8575 29.7801 45.7693 28.7406 45.2279 28.2825C44.2602 27.4636 42.8713 26.4425 42.725 26.4425C42.684 26.4425 42.2734 26.8225 41.8124 27.2871ZM34.5673 27.6768C32.5222 28.0174 31.0025 29.7385 30.8992 31.8312C30.8549 32.7293 31.1017 34.0301 31.345 34.1805C31.3987 34.2137 32.81 32.8727 34.4813 31.2005L37.5198 28.1601L36.9758 27.9259C36.291 27.6311 35.3974 27.5388 34.5673 27.6768ZM36.1258 32.9758C32.8422 36.2638 32.9644 36.0499 34.1644 36.4067C36.147 36.9961 38.3741 35.9708 39.3308 34.0283C39.6631 33.3534 39.7325 33.0641 39.7586 32.2435C39.7897 31.2615 39.5203 30.1098 39.2385 30.0207C39.171 29.9993 37.7703 31.3291 36.1258 32.9758Z" fill="url(#paint0_linear_1448_22255)"></path>
<defs>
<linearGradient id="paint0_linear_1448_22255" x1="0.789062" y1="0.72168" x2="69.4526" y2="42.4529" gradientUnits="userSpaceOnUse">
<stop offset="0" stop-color="#FC466B"></stop>
<stop offset="1" stop-color="#3F5EFB"></stop>
</linearGradient>
</defs>
</svg>