<svg width="54" height="53" viewBox="0 0 54 53" fill="none" xmlns="http://www.w3.org/2000/svg">
<path fill-rule="evenodd" clip-rule="evenodd" d="M28.5459 0.389513C28.1281 0.538039 26.9221 1.69532 20.3563 8.24874C11.9205 16.6685 12.1918 16.3559 12.198 17.6457C12.2038 18.8617 12.2454 18.9138 16.9795 23.6351C19.802 26.45 21.4749 28.038 21.7947 28.2059C22.469 28.5599 23.7179 28.571 24.3536 28.2286C24.6078 28.0917 27.9909 24.7817 32.4755 20.2821C40.8107 11.9194 40.4149 12.3745 40.4149 11.1548C40.4149 9.96876 40.5229 10.104 35.687 5.23924C33.0353 2.57166 31.0376 0.648018 30.7813 0.515281C30.2099 0.219319 29.1864 0.161716 28.5459 0.389513ZM18.2558 3.70684C17.795 3.9697 15.6933 6.15326 15.5848 6.48211C15.4249 6.96689 15.564 7.23138 16.4245 8.07789L17.1708 8.81213L18.9645 7.01611L20.7581 5.21997L19.9929 4.4548C19.1855 3.64739 18.7151 3.44485 18.2558 3.70684ZM33.6087 21.7721L31.8685 23.5147L40.4156 32.0643C46.3338 37.9842 49.1038 40.6826 49.4215 40.8373C50.0121 41.1247 50.9136 41.1315 51.5427 40.8531C52.8078 40.2936 53.3894 38.6699 52.7687 37.4303C52.5774 37.0481 35.6489 20.0293 35.46 20.0293C35.399 20.0293 34.5658 20.8135 33.6087 21.7721ZM9.43573 31.9881C9.13629 32.0934 7.33536 33.0765 5.4336 34.1724C1.71883 36.3134 1.44769 36.5243 1.15696 37.4987C0.920448 38.2915 0.923062 45.7663 1.16022 46.5647C1.45074 47.5431 1.83 47.8347 5.66096 50.0248C7.59746 51.1319 9.36147 52.0876 9.58099 52.1486C10.1088 52.2952 10.6545 52.2825 11.1295 52.1127C11.589 51.9484 17.8502 48.3836 18.4756 47.9302C18.7141 47.7574 19.0561 47.3503 19.2358 47.0256L19.5625 46.4351V42.0795V37.7239L19.2545 37.0969C19.0852 36.752 18.7912 36.3514 18.6012 36.2068C17.9614 35.7197 11.5093 32.0818 11.0245 31.9349C10.3991 31.7453 10.0968 31.7554 9.43573 31.9881ZM11.1393 34.2274C11.6701 34.417 16.4071 37.0953 16.8072 37.4321C16.981 37.5782 17.2555 37.9486 17.4172 38.2553L17.7114 38.8128V42.025C17.7114 45.1642 17.7056 45.2489 17.4589 45.7497C17.3201 46.0315 17.0475 46.4018 16.853 46.5726C16.5363 46.8507 12.7785 49.036 11.5724 49.6436C10.9653 49.9494 10.0859 50.0435 9.53308 49.8619C8.76965 49.611 4.12311 46.9111 3.64944 46.4431C2.92369 45.7261 2.84791 45.3086 2.84791 42.025C2.84791 38.7542 2.91716 38.3716 3.64269 37.6306C4.09785 37.1657 8.59064 34.5429 9.46894 34.2293C9.98029 34.0467 10.6314 34.046 11.1393 34.2274ZM7.53027 37.37C5.77018 38.3646 4.93445 38.8974 4.83972 39.085C4.73997 39.2825 4.70175 40.1105 4.70066 42.1006C4.69903 44.7938 4.70349 44.849 4.94403 45.1151C5.23107 45.4327 9.73823 48.0027 10.1557 48.0868C10.4923 48.1545 10.5291 48.1368 13.386 46.5192C15.0292 45.589 15.6352 45.1898 15.7544 44.9592C15.8821 44.7122 15.9147 44.1315 15.9147 42.1011C15.9147 40.54 15.8686 39.4209 15.7958 39.212C15.6624 38.8294 15.5391 38.7483 12.4808 37.0304C11.4008 36.4236 10.4194 35.9272 10.3002 35.9272C10.1809 35.9272 8.9344 36.5764 7.53027 37.37Z" fill="url(#paint0_linear_1448_22282)"></path>
<defs>
<linearGradient id="paint0_linear_1448_22282" x1="0.980957" y1="0.25" x2="63.3538" y2="31.8515" gradientUnits="userSpaceOnUse">
<stop offset="0" stop-color="#FC466B"></stop>
<stop offset="1" stop-color="#3F5EFB"></stop>
</linearGradient>
</defs>
</svg>