<svg width="46" height="53" viewBox="0 0 46 53" fill="none" xmlns="http://www.w3.org/2000/svg">
<path fill-rule="evenodd" clip-rule="evenodd" d="M2.71431 0.123112C1.85102 0.33329 1.06898 0.951317 0.621071 1.77739L0.273926 2.41758V16.8057C0.273926 30.1828 0.286738 31.2653 0.455836 32.2106C1.46778 37.8655 4.55853 42.44 9.98462 46.314C12.9501 48.4312 16.4617 50.1281 20.9155 51.5961C23.0438 52.2976 23.5931 52.2244 27.6155 50.7031C36.9293 47.1806 43.1717 41.2725 45.113 34.1426C45.7553 31.7837 45.7261 32.6085 45.7261 16.8057V2.41758L45.3786 1.77688C44.8372 0.778152 43.9532 0.180461 42.8469 0.0648477C41.9747 -0.0263616 41.328 0.20395 40.0143 1.07364C38.7 1.94374 37.2761 2.5454 35.7103 2.89234C34.7923 3.0958 34.3718 3.12824 32.7107 3.12377C30.9938 3.11919 30.6525 3.08889 29.6451 2.85227C28.1312 2.49659 26.736 1.89819 25.5293 1.08706C23.4193 -0.331105 22.5807 -0.331105 20.4708 1.08706C19.264 1.89819 17.8688 2.49659 16.3549 2.85227C15.3475 3.08889 15.0062 3.11919 13.2893 3.12377C11.6282 3.12824 11.2077 3.0958 10.2897 2.89234C8.72498 2.5457 7.29989 1.94364 5.98829 1.07537C4.52335 0.105521 3.73195 -0.124587 2.71431 0.123112ZM24.3662 13.1964C26.2201 13.589 27.9432 14.9226 28.7755 16.6088C29.3863 17.8463 29.5038 18.5265 29.506 20.836L29.5077 22.7819L29.9406 22.8467C31.0173 23.0082 31.9753 23.7282 32.4443 24.7282L32.7107 25.2962V29.3126V33.3291L32.4443 33.8971C32.1057 34.6192 31.5604 35.1645 30.8383 35.5031L30.2703 35.7695H23H15.7297L15.1617 35.5031C14.4396 35.1645 13.8943 34.6192 13.5557 33.8971L13.2893 33.3291V29.3126V25.2962L13.5557 24.7282C14.0247 23.7282 14.9827 23.0082 16.0594 22.8467L16.4923 22.7819L16.494 20.836C16.4962 18.5265 16.6137 17.8463 17.2245 16.6088C18.5052 14.0142 21.4912 12.5874 24.3662 13.1964ZM22.0137 16.4804C21.2787 16.743 20.7169 17.1574 20.3548 17.704C19.8379 18.4846 19.7462 18.9801 19.7462 20.9932V22.805H23.0076H26.2691L26.2361 20.7967C26.2044 18.8775 26.1912 18.7633 25.9366 18.2205C25.238 16.7308 23.4867 15.9541 22.0137 16.4804ZM22.3268 27.8262C22.1523 27.9053 21.8777 28.1426 21.7167 28.3538C21.4738 28.672 21.4239 28.8357 21.4239 29.3126C21.4239 29.7804 21.4751 29.9548 21.6979 30.2468C22.2702 30.9972 23.2444 31.1409 23.9762 30.5829C25.1523 29.6857 24.6084 27.8357 23.1346 27.7207C22.848 27.6983 22.5122 27.7422 22.3268 27.8262Z" fill="url(#paint0_linear_1448_22264)"></path>
<defs>
<linearGradient id="paint0_linear_1448_22264" x1="0.273926" y1="0.0234375" x2="57.526" y2="25.3596" gradientUnits="userSpaceOnUse">
<stop offset="0" stop-color="#FC466B"></stop>
<stop offset="1" stop-color="#3F5EFB"></stop>
</linearGradient>
</defs>
</svg>