<svg width="24" height="24" viewBox="0 0 24 24" fill="none" xmlns="http://www.w3.org/2000/svg">
<path fill-rule="evenodd" clip-rule="evenodd" d="M3.84877 0.697846C2.72674 0.944149 1.70588 1.78044 1.21197 2.85793C0.860341 3.62495 0.864967 3.52947 0.883827 9.6425C0.902865 15.8326 0.87505 15.3853 1.29406 16.2325C1.75066 17.1555 2.67763 17.9095 3.71681 18.2029C4.07847 18.305 4.45056 18.3117 9.7365 18.3117H15.3707L15.8155 18.1734C16.4667 17.971 16.9767 17.6642 17.4513 17.1897C17.9258 16.7151 18.2326 16.2051 18.435 15.5539L18.5733 15.1091V9.4749C18.5733 3.17974 18.5949 3.52609 18.1501 2.67776C17.6664 1.755 16.8811 1.10618 15.8155 0.748791C15.5086 0.645893 15.1558 0.638717 9.85511 0.627745C5.25631 0.618315 4.15255 0.631185 3.84877 0.697846ZM21.7984 4.56984C21.5675 4.69047 21.4325 4.81424 21.3023 5.02478L21.1235 5.31402L21.0938 11.5756L21.0642 17.8372L20.9323 18.2227C20.5452 19.3543 19.6159 20.2836 18.4843 20.6707L18.0988 20.8026L11.8419 20.8322L5.58499 20.8619L5.30488 21.0266C4.81062 21.3171 4.57036 21.9184 4.72261 22.4839C4.81542 22.8284 5.2062 23.2173 5.5573 23.3146C5.76208 23.3714 7.23522 23.3839 12.0495 23.3696L18.2767 23.3511L18.8566 23.1918C21.1499 22.5621 22.8238 20.8891 23.4525 18.5985L23.6127 18.0151L23.6312 11.7879C23.6455 6.97362 23.633 5.50049 23.5762 5.2957C23.4831 4.95984 23.1086 4.57606 22.7772 4.47708C22.4012 4.36469 22.1445 4.38907 21.7984 4.56984ZM10.0496 5.71927C10.4296 5.81493 10.8463 6.23163 10.9419 6.61161C10.9802 6.76373 11.0116 7.18333 11.0116 7.54404V8.1998L11.7678 8.2011C12.6331 8.20258 12.874 8.27553 13.1854 8.63019C13.7199 9.23892 13.5572 10.1739 12.8475 10.5721C12.6101 10.7053 12.5039 10.7224 11.8031 10.7409L11.023 10.7614L11.0025 11.5415C10.984 12.2423 10.9669 12.3485 10.8337 12.5859C10.6108 12.9832 10.2634 13.2004 9.80452 13.2296C9.38267 13.2565 9.08756 13.1432 8.80555 12.846C8.52272 12.548 8.46139 12.3069 8.46139 11.4932V10.75H7.80563C6.9213 10.75 6.66403 10.6782 6.32183 10.336C5.69744 9.7116 5.84802 8.7453 6.63052 8.35536C6.91852 8.21183 7.00149 8.1998 7.70202 8.1998H8.46139V7.44043C8.46139 6.73989 8.47343 6.65692 8.61696 6.36892C8.78331 6.03508 9.08471 5.78819 9.4243 5.70765C9.70352 5.6414 9.74344 5.64217 10.0496 5.71927Z" fill="#fff"></path>
</svg>