<svg width="28" height="24" viewBox="0 0 28 24" fill="none" xmlns="http://www.w3.org/2000/svg">
<path fill-rule="evenodd" clip-rule="evenodd" d="M6.63077 0.682215C3.54897 1.19345 1.32548 3.33145 0.659316 6.42415C0.48962 7.212 0.491446 8.66284 0.663182 9.46153C0.891519 10.5236 1.35813 11.5696 2.05366 12.5785C2.58627 13.3512 2.97684 13.812 3.89078 14.7464C5.12268 16.0058 6.34765 17.0674 9.04205 19.2106C9.82185 19.8308 11.3151 21.0215 12.3605 21.8567L14.261 23.375L15.4535 22.4169C16.1094 21.89 17.5401 20.7494 18.633 19.8824C22.0488 17.1723 23.3246 16.0765 24.6752 14.6928C26.5173 12.8057 27.4683 11.2381 27.8491 9.46153C28.0093 8.71375 28.0234 7.26844 27.8775 6.53907C27.5582 4.94291 26.832 3.59679 25.7244 2.54838C24.7512 1.62719 23.5724 1.02359 22.1772 0.731942C21.5043 0.591299 19.9529 0.589581 19.3152 0.728774C17.4151 1.14361 15.8147 2.28095 14.6219 4.06409C14.4431 4.33142 14.2786 4.5502 14.2563 4.5502C14.2341 4.5502 14.0676 4.32857 13.8865 4.0577C12.709 2.29733 11.1094 1.155 9.23527 0.736077C8.69998 0.616431 7.21273 0.58566 6.63077 0.682215Z" fill="#fff"></path>
</svg>